<?xml version="1.0" standalone="no"?>
<!DOCTYPE svg PUBLIC "-//W3C//DTD SVG 20010904//EN"
 "http://www.w3.org/TR/2001/REC-SVG-20010904/DTD/svg10.dtd">
<svg version="1.0" xmlns="http://www.w3.org/2000/svg"
 width="512.000000pt" height="512.000000pt" viewBox="0 0 512.000000 512.000000"
 preserveAspectRatio="xMidYMid meet">

<g transform="translate(0.000000,512.000000) scale(0.100000,-0.100000)"
fill="#000000" stroke="none">
<path d="M2385 4223 c-313 -66 -560 -312 -636 -630 -28 -117 -23 -311 11 -418
115 -364 428 -597 800 -598 172 0 314 42 457 135 239 156 373 406 373 699 0
233 -88 440 -257 601 -197 187 -484 268 -748 211z m287 -294 c92 -19 194 -75
262 -142 106 -107 156 -229 156 -380 0 -295 -232 -529 -524 -528 -156 1 -270
46 -377 151 -214 209 -213 548 1 759 124 122 309 176 482 140z"/>
<path d="M797 3854 c-78 -19 -200 -83 -265 -140 -71 -62 -138 -159 -175 -252
-26 -66 -31 -94 -35 -192 -5 -136 9 -206 65 -320 54 -110 170 -224 284 -278
108 -51 172 -66 289 -65 169 2 307 60 431 183 129 127 189 269 189 445 0 116
-20 198 -72 299 -81 156 -236 276 -413 321 -73 19 -220 18 -298 -1z m270 -305
c69 -27 145 -94 181 -164 24 -44 27 -62 27 -145 0 -114 -22 -168 -97 -242
-165 -161 -457 -96 -538 119 -29 77 -25 195 9 265 39 80 124 152 211 179 51
15 148 9 207 -12z"/>
<path d="M4015 3854 c-173 -43 -334 -174 -414 -334 -155 -314 -32 -686 280
-845 205 -105 444 -91 634 37 281 187 368 560 198 847 -74 124 -197 225 -341
279 -85 32 -263 40 -357 16z m269 -305 c73 -27 148 -96 183 -167 24 -49 28
-69 28 -142 0 -71 -4 -94 -26 -140 -124 -261 -485 -256 -607 9 -49 104 -31
240 44 338 81 106 247 151 378 102z"/>
<path d="M3702 2410 c-94 -25 -201 -82 -267 -142 -29 -26 -57 -48 -63 -48 -5
0 -39 14 -76 30 -37 17 -106 41 -154 53 -84 21 -103 22 -582 22 -480 0 -498
-1 -583 -22 -48 -13 -121 -38 -162 -57 l-73 -34 -24 25 c-65 69 -197 144 -300
168 -93 22 -834 21 -928 -1 -175 -41 -340 -172 -419 -334 -57 -117 -71 -192
-71 -390 0 -182 8 -214 63 -254 28 -21 41 -21 620 -26 l592 -5 5 -210 c6 -233
9 -246 73 -285 31 -19 60 -20 1208 -20 l1176 0 33 23 c73 49 75 55 78 287 l4
209 583 3 c572 3 584 3 611 24 65 48 69 60 72 247 4 208 -9 285 -69 407 -58
117 -162 221 -279 279 -136 67 -171 71 -610 70 -346 0 -392 -2 -458 -19z m918
-311 c123 -58 189 -163 198 -310 l5 -89 -513 0 c-511 0 -512 0 -517 21 -13 48
-83 179 -131 241 l-50 67 31 24 c99 75 111 76 542 74 l380 -2 55 -26z m-3234
0 c31 -12 70 -34 87 -49 l31 -28 -44 -58 c-45 -60 -108 -173 -128 -231 l-11
-33 -510 0 -511 0 0 63 c0 160 85 287 228 339 41 15 94 17 424 18 360 0 380
-1 434 -21z m1704 -92 c205 -61 363 -213 425 -408 23 -73 25 -96 25 -250 l0
-169 -981 0 -981 0 4 188 c4 162 8 195 27 249 76 210 269 369 490 403 31 4
254 7 496 6 372 -2 448 -5 495 -19z"/>
</g>
</svg>
