<?xml version="1.0" standalone="no"?>
<!DOCTYPE svg PUBLIC "-//W3C//DTD SVG 20010904//EN"
 "http://www.w3.org/TR/2001/REC-SVG-20010904/DTD/svg10.dtd">
<svg version="1.0" xmlns="http://www.w3.org/2000/svg"
 width="1080.000000pt" height="1080.000000pt" viewBox="0 0 1080.000000 1080.000000"
 preserveAspectRatio="xMidYMid meet">

<g transform="translate(0.000000,1080.000000) scale(0.100000,-0.100000)"
fill="#000000" stroke="none">
<path d="M2515 7611 c-72 -18 -142 -77 -169 -143 -9 -22 -16 -66 -16 -105 0
-55 6 -78 28 -118 35 -63 97 -110 164 -124 38 -8 879 -11 2908 -9 2759 3 2856
4 2898 22 23 10 62 40 86 67 92 102 87 246 -11 344 -82 82 199 75 -3002 74
-1571 -1 -2869 -4 -2886 -8z"/>
<path d="M2560 5650 c-144 -15 -230 -107 -230 -245 0 -105 44 -179 135 -228
l40 -22 2875 -3 c3226 -2 2943 -9 3025 73 66 66 88 154 63 253 -14 58 -95 144
-153 163 -33 11 -540 14 -2865 15 -1554 1 -2854 -2 -2890 -6z"/>
<path d="M2492 3677 c-46 -14 -121 -84 -143 -132 -12 -25 -19 -64 -19 -106 0
-113 58 -198 161 -234 36 -13 420 -15 2918 -15 2872 0 2876 0 2921 21 99 45
144 116 145 229 0 64 -4 82 -28 122 -31 53 -79 94 -134 114 -32 11 -535 13
-2913 13 -1983 -1 -2885 -4 -2908 -12z"/>
</g>
</svg>
