<?xml version="1.0" standalone="no"?>
<!DOCTYPE svg PUBLIC "-//W3C//DTD SVG 20010904//EN"
 "http://www.w3.org/TR/2001/REC-SVG-20010904/DTD/svg10.dtd">
<svg version="1.0" xmlns="http://www.w3.org/2000/svg"
 width="500.000000pt" height="500.000000pt" viewBox="0 0 500.000000 500.000000"
 preserveAspectRatio="xMidYMid meet">

<g transform="translate(0.000000,500.000000) scale(0.100000,-0.100000)"
fill="#008521" stroke="none">
<path d="M3478 4955 c-16 -18 -28 -35 -28 -39 0 -3 26 -23 58 -43 206 -134
468 -379 604 -563 214 -292 288 -431 404 -770 11 -30 52 -197 68 -270 18 -87
46 -350 46 -436 0 -86 -35 -268 -67 -347 -35 -86 -112 -188 -189 -250 -36 -30
-133 -85 -251 -144 -156 -77 -200 -103 -231 -138 -67 -76 -114 -253 -166 -625
-83 -585 -210 -861 -483 -1047 -111 -76 -167 -104 -283 -142 -151 -50 -310
-67 -514 -54 -482 31 -924 228 -1431 638 -88 71 -194 156 -235 189 -115 93
-349 294 -402 344 -52 50 -57 49 -100 -10 l-20 -29 114 -108 c258 -245 628
-535 880 -689 333 -204 730 -352 1038 -387 269 -31 393 -29 589 11 318 64 566
239 727 514 100 170 143 336 235 902 21 133 59 261 97 332 39 71 92 112 259
199 176 92 266 157 337 243 161 195 198 348 177 725 -13 251 -49 433 -129 669
-90 264 -160 409 -297 615 -146 219 -362 447 -575 606 -105 78 -195 140 -202
138 -2 0 -15 -15 -30 -34z"/>
<path d="M3326 4780 l-26 -32 82 -55 c276 -185 525 -438 685 -694 91 -145 202
-389 245 -534 68 -235 81 -309 86 -498 4 -149 1 -188 -13 -235 -59 -195 -172
-317 -380 -409 -156 -69 -182 -82 -223 -112 -98 -72 -145 -204 -182 -507 -71
-588 -166 -930 -308 -1111 -154 -195 -349 -306 -602 -343 -89 -12 -320 1 -425
25 -170 40 -398 136 -548 232 -100 64 -336 248 -377 294 -33 37 -345 271 -530
399 -74 51 -177 125 -229 164 -52 39 -100 75 -107 81 -9 6 -21 2 -39 -15 -14
-13 -25 -27 -25 -31 0 -9 268 -223 376 -300 71 -51 225 -173 529 -419 236
-191 492 -338 720 -411 191 -62 319 -83 515 -82 185 0 300 21 431 78 229 101
369 237 478 465 83 175 129 375 196 850 58 417 108 523 283 602 249 112 329
161 403 250 106 127 141 253 140 498 -2 255 -60 509 -186 815 -107 260 -311
557 -510 743 -127 119 -359 295 -418 317 -8 4 -25 -6 -41 -25z"/>
<path d="M3190 4623 c-11 -14 -17 -29 -13 -33 4 -4 60 -41 123 -83 151 -100
257 -192 382 -333 167 -188 227 -275 321 -469 137 -280 212 -618 178 -800 -14
-77 -73 -196 -123 -251 -42 -46 -115 -92 -276 -174 -169 -87 -228 -154 -270
-310 -23 -83 -28 -114 -77 -510 -46 -366 -63 -451 -129 -633 -74 -205 -156
-325 -297 -437 -71 -56 -131 -85 -239 -116 -84 -24 -102 -26 -228 -21 -284 10
-450 89 -774 371 -116 101 -204 168 -270 204 -20 12 -81 48 -135 80 -54 33
-183 108 -288 167 -219 124 -320 187 -424 263 l-73 54 -21 -21 -21 -21 34 -30
c56 -48 347 -241 555 -368 223 -136 344 -225 547 -399 229 -196 428 -309 627
-354 216 -49 380 -44 551 17 243 88 402 261 511 557 63 170 109 418 175 941
26 209 70 324 151 396 24 20 105 68 180 105 76 37 157 81 181 97 103 71 175
174 206 294 22 87 21 273 -3 406 -25 137 -116 411 -185 552 -159 327 -434 634
-742 829 -50 31 -96 57 -102 57 -6 0 -20 -12 -32 -27z"/>
<path d="M3066 4481 c-21 -24 -15 -36 27 -57 62 -31 201 -130 281 -200 201
-175 344 -358 457 -584 104 -208 141 -344 143 -530 1 -120 0 -127 -30 -191
-45 -94 -142 -187 -279 -268 -160 -95 -219 -156 -259 -268 -19 -54 -41 -207
-66 -463 -40 -396 -82 -606 -160 -795 -91 -220 -211 -351 -385 -422 -73 -30
-89 -33 -188 -33 -124 0 -185 16 -306 81 -73 39 -100 60 -191 143 -154 141
-217 182 -410 261 -542 224 -732 318 -952 471 -43 30 -81 54 -86 54 -5 0 -15
-6 -21 -14 -10 -12 0 -23 55 -63 156 -111 319 -204 659 -373 384 -190 440
-223 550 -316 312 -266 427 -324 646 -332 107 -3 138 -1 207 18 214 58 377
225 476 491 76 202 115 412 161 874 19 188 30 262 52 330 42 133 92 188 261
288 180 107 252 169 294 254 83 165 71 391 -36 669 -152 399 -435 742 -785
952 -81 48 -91 50 -115 23z"/>
<path d="M2964 4359 c-20 -22 -19 -23 41 -56 133 -71 327 -231 439 -363 220
-259 346 -526 346 -740 0 -179 -58 -272 -273 -436 -54 -42 -112 -90 -128 -108
-76 -84 -120 -225 -134 -431 -23 -342 -45 -521 -85 -690 -55 -227 -134 -388
-243 -496 -82 -80 -150 -112 -255 -117 -72 -4 -91 -1 -149 23 -82 33 -102 46
-227 157 -119 106 -190 138 -375 174 -464 90 -814 227 -1122 440 -70 48 -76
51 -87 34 -10 -16 4 -28 126 -108 262 -173 482 -270 911 -403 280 -87 342
-119 466 -235 84 -79 191 -149 266 -175 187 -63 394 3 524 168 57 73 134 223
169 328 45 140 88 382 106 600 21 263 42 441 57 495 33 121 106 207 257 306
126 83 148 103 202 186 122 189 96 440 -81 765 -147 270 -393 526 -643 667
-74 42 -83 43 -108 15z"/>
<path d="M2860 4241 c-14 -27 -16 -24 43 -61 252 -159 360 -255 497 -440 133
-180 191 -323 192 -470 0 -149 -37 -214 -243 -426 -158 -162 -180 -227 -204
-604 -24 -379 -43 -505 -97 -660 -77 -218 -178 -342 -303 -370 -88 -20 -200
34 -309 150 -79 83 -83 84 -371 86 -323 1 -410 10 -605 65 -196 54 -396 146
-572 261 -91 60 -103 65 -113 48 -8 -13 199 -148 320 -208 126 -63 311 -134
435 -166 130 -35 239 -52 480 -76 112 -11 221 -25 242 -31 42 -11 105 -56 196
-141 93 -86 129 -102 232 -102 69 0 93 4 128 23 135 70 241 242 307 497 33
131 52 274 65 504 20 342 42 460 104 558 13 21 83 94 155 162 73 68 144 144
160 169 100 163 87 363 -37 594 -99 183 -240 353 -397 478 -74 59 -264 179
-283 179 -6 0 -16 -9 -22 -19z"/>
<path d="M2776 4141 c-17 -18 -16 -20 4 -26 40 -13 224 -142 301 -211 247
-221 370 -459 338 -654 -13 -83 -54 -158 -143 -264 -161 -192 -206 -312 -226
-604 -34 -501 -44 -560 -116 -705 -96 -191 -213 -217 -376 -83 -32 26 -77 56
-100 66 -48 22 -131 26 -193 9 -22 -5 -96 -25 -165 -44 -290 -79 -556 -63
-844 51 -115 45 -263 123 -344 181 -56 40 -82 47 -82 23 0 -12 152 -111 252
-164 222 -118 512 -195 733 -196 66 0 310 26 324 34 4 3 52 10 107 16 134 16
159 8 264 -80 108 -91 151 -113 216 -114 129 -2 246 148 309 399 30 119 41
208 55 455 24 426 49 506 220 690 76 83 138 172 165 239 77 188 -21 451 -260
699 -44 46 -108 106 -142 134 -68 54 -250 168 -269 168 -6 0 -19 -9 -28 -19z"/>
<path d="M2691 4046 c-10 -11 4 -24 73 -66 180 -110 357 -283 422 -413 56
-110 73 -234 45 -322 -7 -22 -56 -118 -108 -213 -132 -238 -147 -288 -173
-547 -31 -327 -49 -443 -77 -515 -33 -83 -63 -123 -109 -145 -50 -23 -93 -15
-216 42 -96 43 -104 45 -172 41 -66 -5 -84 -12 -246 -95 -213 -109 -283 -128
-470 -128 -129 1 -225 16 -345 57 -94 31 -255 110 -340 167 -46 30 -82 48 -87
43 -12 -12 141 -114 253 -169 230 -112 458 -158 669 -135 112 13 252 53 340
97 73 37 201 75 251 75 38 0 71 -12 174 -65 69 -36 138 -65 153 -65 78 1 154
87 198 223 30 96 38 163 59 463 22 331 52 425 206 664 31 47 62 96 71 110 29
49 48 124 48 194 0 155 -71 288 -244 461 -101 100 -219 191 -313 239 -39 20
-47 20 -62 2z"/>
<path d="M2624 3968 c-8 -13 -6 -15 111 -90 104 -67 264 -225 300 -297 45 -90
56 -132 56 -213 1 -82 4 -72 -131 -393 -57 -134 -84 -237 -115 -440 -14 -93
-32 -201 -40 -239 -27 -127 -77 -198 -152 -212 -35 -7 -55 -3 -182 31 -116 31
-177 10 -352 -122 -186 -139 -246 -170 -389 -199 -214 -43 -472 21 -717 179
-43 28 -75 42 -79 36 -3 -6 -4 -12 -3 -13 60 -44 87 -62 150 -96 108 -60 199
-97 313 -127 85 -23 122 -27 231 -27 201 -1 285 28 505 174 131 87 205 120
267 120 21 0 83 -16 137 -35 157 -55 216 -44 268 51 39 73 56 150 83 388 38
334 39 338 194 661 l76 160 0 106 c0 106 0 107 -43 192 -69 136 -197 264 -374
373 -74 45 -101 53 -114 32z"/>
<path d="M2557 3893 c-14 -13 -6 -21 74 -73 97 -64 216 -177 252 -240 14 -25
34 -75 43 -110 26 -102 15 -173 -66 -420 -38 -118 -70 -219 -70 -225 0 -26
-95 -365 -115 -411 -14 -31 -38 -63 -61 -80 -37 -29 -40 -29 -168 -29 -122 0
-135 -2 -186 -27 -61 -30 -121 -78 -269 -215 -112 -104 -195 -151 -308 -177
-190 -43 -414 5 -618 133 -85 53 -83 52 -89 43 -6 -11 94 -76 190 -125 271
-136 559 -136 757 2 23 16 98 77 167 136 184 158 209 167 431 150 l106 -8 41
37 c54 49 89 152 122 361 18 116 66 292 115 425 77 206 87 247 88 340 0 65 -5
99 -22 143 -42 109 -176 248 -323 336 -70 42 -80 46 -91 34z"/>
<path d="M2481 3803 c-8 -14 1 -24 52 -59 209 -141 280 -303 232 -528 -22
-102 -143 -482 -176 -553 -46 -96 -83 -121 -239 -158 -121 -29 -185 -68 -290
-178 -216 -227 -255 -263 -321 -296 -89 -44 -160 -61 -254 -61 -130 0 -266 41
-382 116 -53 34 -73 41 -73 27 0 -13 203 -120 270 -143 90 -31 250 -38 345
-16 121 29 183 72 360 250 102 103 178 171 211 188 58 31 152 58 204 58 91 0
161 45 200 128 22 45 135 416 181 593 15 58 22 116 23 189 1 98 -1 109 -30
170 -39 83 -105 156 -202 223 -102 71 -99 70 -111 50z"/>
<path d="M2422 3727 c-8 -9 4 -23 49 -56 32 -24 73 -59 90 -79 43 -49 87 -144
95 -208 20 -162 -96 -550 -195 -650 -30 -31 -51 -42 -215 -119 -106 -49 -144
-82 -288 -249 -67 -77 -136 -154 -153 -171 -109 -108 -257 -165 -393 -151 -86
9 -205 48 -276 91 -32 20 -61 33 -64 30 -18 -17 171 -111 263 -130 39 -8 100
-15 137 -15 184 0 293 63 478 280 172 201 235 249 391 300 130 43 161 65 204
150 57 113 144 416 152 530 12 184 -56 323 -212 430 -50 34 -49 34 -63 17z"/>
</g>
</svg>
