<?xml version="1.0" standalone="no"?>
<!DOCTYPE svg PUBLIC "-//W3C//DTD SVG 20010904//EN"
 "http://www.w3.org/TR/2001/REC-SVG-20010904/DTD/svg10.dtd">
<svg version="1.0" xmlns="http://www.w3.org/2000/svg"
 width="1080.000000pt" height="1080.000000pt" viewBox="0 0 1080.000000 1080.000000"
 preserveAspectRatio="xMidYMid meet">

<g transform="translate(0.000000,1080.000000) scale(0.100000,-0.100000)"
fill="#000000" stroke="none">
<path d="M5263 8440 c-59 -30 -103 -73 -139 -140 -17 -32 -19 -58 -19 -280 0
-241 0 -246 25 -294 33 -64 108 -130 172 -152 75 -25 179 -16 247 21 63 34 95
71 130 145 26 54 26 59 26 280 0 253 -5 276 -80 358 -58 65 -123 92 -220 92
-71 0 -90 -4 -142 -30z"/>
<path d="M3324 7641 c-55 -25 -119 -84 -151 -139 -21 -36 -28 -62 -31 -128 -7
-126 14 -162 190 -339 79 -79 161 -152 183 -163 161 -80 340 -22 417 135 26
54 32 77 32 132 0 110 -30 161 -192 324 -168 169 -215 197 -331 197 -53 0 -89
-6 -117 -19z"/>
<path d="M7234 7635 c-35 -17 -98 -74 -205 -182 -142 -145 -157 -163 -173
-217 -76 -244 150 -462 395 -381 47 16 74 37 207 169 166 164 199 212 209 308
12 121 -56 241 -168 297 -53 27 -73 31 -139 31 -61 0 -86 -5 -126 -25z"/>
<path d="M5310 6933 c-378 -23 -719 -179 -990 -452 -305 -306 -451 -655 -451
-1076 0 -280 44 -466 172 -715 220 -431 643 -734 1134 -811 103 -17 358 -17
455 -1 327 55 604 192 832 411 263 252 423 571 468 935 17 129 7 351 -19 477
-108 506 -461 934 -925 1119 -216 87 -456 127 -676 113z"/>
<path d="M2527 5685 c-72 -27 -134 -81 -166 -147 -27 -52 -31 -72 -31 -138 0
-66 4 -86 31 -138 35 -70 71 -104 149 -141 54 -26 59 -26 275 -26 l220 0 67
33 c73 36 115 80 149 158 31 68 24 192 -14 256 -35 61 -107 123 -164 142 -63
22 -458 22 -516 1z"/>
<path d="M7732 5669 c-235 -117 -225 -441 17 -553 43 -19 62 -21 271 -21 209
0 228 1 272 22 63 29 131 94 159 151 33 67 33 198 1 259 -35 67 -78 110 -144
143 l-61 30 -227 0 -227 0 -61 -31z"/>
<path d="M3580 3951 c-14 -5 -43 -17 -65 -29 -49 -25 -325 -303 -351 -352 -26
-51 -31 -183 -10 -235 71 -171 250 -246 416 -174 52 23 318 280 355 344 117
201 -35 458 -269 454 -28 0 -62 -4 -76 -8z"/>
<path d="M7034 3939 c-70 -27 -128 -79 -161 -147 -37 -75 -40 -191 -6 -264 23
-51 248 -290 318 -338 90 -61 215 -72 310 -26 108 54 170 153 170 276 0 117
-19 148 -198 326 -132 132 -159 154 -210 173 -72 26 -155 27 -223 0z"/>
<path d="M5294 3220 c-72 -29 -128 -80 -163 -152 l-31 -61 0 -227 0 -227 30
-61 c56 -112 145 -166 270 -166 95 0 163 28 221 91 79 86 84 108 84 358 0 192
-2 226 -19 269 -58 151 -244 235 -392 176z"/>
</g>
</svg>
