<?xml version="1.0" standalone="no"?>
<!DOCTYPE svg PUBLIC "-//W3C//DTD SVG 20010904//EN"
 "http://www.w3.org/TR/2001/REC-SVG-20010904/DTD/svg10.dtd">
<svg version="1.0" xmlns="http://www.w3.org/2000/svg"
 width="500.000000pt" height="500.000000pt" viewBox="0 0 500.000000 500.000000"
 preserveAspectRatio="xMidYMid meet">

<g transform="translate(0.000000,500.000000) scale(0.100000,-0.100000)"
fill="#cf1334" stroke="none">
<path d="M1890 3814 c-202 -31 -402 -101 -535 -189 -246 -162 -435 -395 -525
-650 -70 -198 -81 -271 -89 -595 -9 -331 -13 -352 -80 -395 -20 -13 -73 -31
-121 -40 -214 -41 -299 -75 -377 -152 -98 -97 -145 -251 -147 -483 l-1 -135
40 0 40 0 6 125 c12 233 72 356 212 434 69 39 88 44 307 82 85 14 168 33 183
41 36 18 57 68 57 137 0 54 -25 300 -36 345 -12 52 -5 320 11 411 43 255 154
470 339 656 207 209 435 316 766 360 273 37 646 -24 926 -151 154 -70 226
-149 269 -297 14 -49 16 -105 13 -410 l-3 -353 24 -48 c30 -61 72 -92 148
-112 57 -15 72 -14 229 5 93 12 194 25 224 30 30 5 108 9 172 9 320 2 573
-110 760 -337 113 -136 180 -279 209 -442 14 -83 18 -334 6 -422 -7 -57 -7
-58 18 -58 36 0 40 26 40 250 0 290 -35 425 -164 621 -158 242 -393 396 -691
450 -83 15 -342 16 -525 2 -223 -17 -313 19 -356 142 -11 31 -13 94 -11 285 2
142 -2 283 -8 335 -30 239 -152 352 -503 466 -278 91 -577 120 -827 83z"/>
<path d="M1990 3694 c-337 -44 -563 -146 -760 -343 -192 -193 -297 -418 -322
-687 -16 -177 -1 -301 63 -534 28 -102 56 -208 61 -236 19 -100 -22 -168 -117
-193 -22 -5 -105 -20 -185 -31 -144 -21 -259 -49 -313 -77 -109 -56 -174 -176
-192 -355 l-7 -68 41 0 c36 0 41 3 47 28 34 148 40 166 87 224 74 93 171 131
424 167 243 35 293 54 326 124 30 63 19 117 -72 361 -83 222 -102 301 -108
458 -9 206 20 343 107 520 53 107 91 160 184 257 94 98 249 204 364 250 156
62 262 83 440 89 248 7 445 -23 636 -98 199 -78 279 -161 315 -328 7 -34 11
-183 11 -410 0 -375 4 -412 48 -497 24 -48 83 -106 132 -130 55 -28 151 -30
260 -5 304 69 448 94 540 94 257 0 478 -110 641 -319 67 -87 129 -247 150
-386 12 -83 8 -336 -6 -371 -6 -14 -2 -18 18 -18 24 0 26 5 33 57 12 88 9 321
-5 385 -75 349 -285 587 -606 684 -82 25 -104 28 -245 27 -138 0 -175 -5 -335
-37 -233 -47 -313 -54 -389 -32 -72 21 -135 77 -167 149 -24 52 -24 54 -24
437 0 295 -3 396 -14 430 -37 123 -112 212 -221 263 -109 50 -289 106 -410
128 -111 20 -354 32 -430 23z"/>
<path d="M2040 3568 c-296 -21 -544 -130 -726 -319 -163 -170 -247 -361 -261
-589 -12 -203 27 -349 174 -654 99 -204 107 -224 107 -281 1 -51 -4 -69 -26
-103 -49 -74 -99 -93 -407 -157 -95 -20 -198 -45 -228 -57 -100 -37 -178 -118
-208 -215 -6 -22 -4 -23 44 -23 48 0 52 2 77 40 36 53 120 117 188 141 31 11
153 44 271 74 117 29 228 61 247 71 102 52 155 136 144 228 -6 57 -52 157
-136 302 -206 352 -245 592 -144 892 81 242 311 459 581 547 163 54 207 60
403 60 192 0 264 -10 425 -57 186 -54 294 -160 335 -328 6 -25 15 -202 20
-395 8 -295 13 -362 30 -427 52 -201 188 -322 377 -336 86 -6 143 5 363 65
142 39 182 46 290 50 94 4 142 1 193 -11 208 -49 375 -198 449 -400 52 -141
71 -322 49 -458 -7 -45 -7 -48 15 -48 20 0 23 6 29 65 4 36 5 123 3 193 -4
108 -10 142 -38 227 -49 151 -80 202 -187 306 -76 74 -109 98 -176 129 -45 20
-102 42 -127 48 -81 20 -202 25 -295 13 -86 -11 -124 -20 -335 -79 -76 -21
-117 -26 -210 -26 -107 -1 -119 1 -173 28 -107 53 -177 154 -209 301 -7 29
-12 184 -14 375 -2 344 -9 416 -49 504 -48 107 -114 165 -246 216 -184 71
-409 103 -619 88z"/>
<path d="M1970 3459 c-94 -12 -229 -53 -313 -95 -194 -98 -323 -227 -406 -405
-50 -109 -71 -204 -71 -326 1 -202 49 -335 217 -593 117 -180 136 -216 153
-288 22 -96 -5 -177 -83 -249 -60 -55 -97 -73 -257 -122 -74 -23 -175 -56
-225 -73 -90 -30 -210 -93 -235 -122 -11 -14 -6 -16 41 -16 42 0 71 9 143 44
50 25 161 69 246 100 330 117 406 171 444 319 28 106 -13 209 -165 424 -102
143 -171 274 -204 388 -23 75 -27 110 -27 205 0 101 4 126 31 210 41 127 90
208 186 305 126 128 290 214 480 251 110 22 318 24 430 5 242 -40 358 -108
425 -246 40 -81 57 -190 69 -450 15 -297 19 -347 42 -442 42 -185 147 -321
295 -383 71 -30 91 -34 194 -37 106 -4 133 -1 339 41 143 29 251 46 296 46
249 0 454 -161 527 -415 20 -68 23 -101 22 -218 -2 -123 0 -138 15 -135 25 5
37 130 23 253 -20 176 -72 294 -182 405 -86 86 -145 120 -270 151 -65 17 -102
20 -160 16 -75 -6 -281 -44 -393 -73 -319 -82 -560 17 -659 273 -41 106 -58
238 -68 557 -6 173 -15 302 -23 336 -18 72 -61 157 -101 198 -120 127 -472
200 -776 161z"/>
<path d="M1973 3376 c-393 -75 -660 -343 -680 -681 -13 -214 43 -351 266 -645
39 -52 90 -133 113 -179 35 -72 42 -97 46 -163 4 -73 2 -83 -28 -145 -35 -70
-99 -140 -165 -178 -22 -13 -103 -50 -180 -83 -77 -33 -174 -76 -215 -95 l-75
-35 63 -1 c59 -1 73 4 258 93 197 96 248 128 317 201 62 65 87 130 87 224 0
132 -43 223 -208 440 -117 153 -153 213 -194 321 -30 80 -32 93 -32 215 0 118
3 137 28 205 124 330 476 520 893 481 201 -19 303 -57 384 -142 93 -98 123
-203 144 -513 21 -314 42 -438 92 -566 54 -135 146 -238 269 -299 130 -65 264
-75 524 -40 230 31 351 35 430 14 176 -46 297 -172 345 -360 9 -34 15 -103 15
-162 0 -96 1 -103 20 -103 19 0 20 7 20 116 0 198 -51 336 -165 443 -152 142
-283 163 -650 102 -284 -46 -403 -41 -534 22 -120 58 -216 167 -267 304 -46
121 -60 226 -84 623 -12 190 -28 276 -65 349 -59 117 -142 176 -306 216 -131
32 -354 42 -466 21z"/>
<path d="M2024 3295 c-337 -50 -595 -297 -612 -587 -6 -115 10 -194 63 -303
39 -81 71 -127 227 -330 109 -142 152 -256 153 -400 0 -121 -16 -158 -109
-251 -67 -66 -116 -100 -279 -190 -104 -57 -106 -59 -73 -62 27 -2 53 7 108
39 223 130 332 221 378 315 21 42 24 63 24 144 -1 157 -58 292 -204 484 -200
264 -244 358 -243 531 2 215 123 393 343 503 179 90 368 114 567 73 167 -35
257 -108 314 -254 31 -80 31 -83 89 -555 37 -300 96 -452 229 -582 87 -85 178
-136 301 -166 64 -16 102 -18 265 -14 353 9 423 6 501 -18 127 -39 226 -131
270 -252 8 -25 19 -88 22 -140 6 -79 10 -95 25 -98 15 -3 17 6 17 90 0 136
-32 225 -116 324 -50 59 -130 105 -220 128 -72 19 -234 21 -339 5 -102 -15
-359 -15 -425 0 -30 8 -93 31 -139 52 -146 68 -266 210 -320 379 -41 128 -50
187 -82 545 -38 417 -135 548 -437 589 -131 19 -175 19 -298 1z"/>
<path d="M2095 3229 c-167 -19 -311 -84 -415 -189 -138 -137 -187 -299 -145
-478 22 -91 71 -180 184 -332 111 -149 174 -261 217 -390 24 -71 29 -102 29
-185 0 -86 -3 -107 -24 -150 -36 -72 -117 -148 -266 -248 -107 -72 -124 -87
-100 -87 32 0 89 34 220 131 122 91 157 125 185 184 22 44 25 63 24 155 0 84
-6 123 -28 193 -33 111 -109 265 -179 365 -29 42 -74 106 -99 142 -96 138
-128 225 -128 353 0 171 90 317 259 417 175 104 456 130 615 57 151 -69 222
-216 261 -537 38 -318 76 -484 142 -620 39 -79 61 -109 132 -180 61 -61 107
-97 159 -124 135 -70 217 -85 527 -96 273 -10 328 -19 418 -71 112 -65 187
-198 187 -329 0 -23 5 -30 20 -30 18 0 20 7 20 54 0 112 -59 240 -143 309
-109 89 -167 100 -507 102 -215 1 -289 5 -341 18 -219 53 -371 173 -464 364
-69 139 -97 265 -135 608 -38 330 -86 448 -217 531 -84 55 -254 81 -408 63z"/>
<path d="M2052 3145 c-106 -24 -209 -80 -285 -156 -106 -106 -148 -229 -126
-369 13 -87 48 -158 158 -325 144 -217 211 -364 251 -554 50 -234 7 -320 -247
-497 -70 -49 -93 -70 -79 -72 38 -8 283 177 333 251 56 83 55 215 -2 411 -50
171 -115 306 -277 571 -78 127 -101 201 -96 307 4 104 35 175 110 254 104 110
251 168 428 169 58 0 124 -6 147 -13 104 -31 194 -125 238 -247 14 -38 41
-162 60 -275 20 -113 43 -243 51 -290 16 -87 72 -275 80 -268 2 3 -5 31 -16
64 -29 84 -44 156 -90 439 -23 138 -48 275 -57 305 -38 135 -108 227 -209 276
-54 25 -71 28 -184 31 -82 2 -147 -2 -188 -12z"/>
<path d="M2131 3089 c-106 -18 -229 -83 -299 -159 -36 -39 -80 -137 -87 -195
-13 -100 19 -197 127 -384 91 -157 152 -293 207 -458 56 -170 76 -276 69 -366
-10 -116 -57 -180 -208 -282 -55 -37 -100 -69 -100 -71 0 -30 206 95 264 159
47 53 69 106 74 182 10 175 -107 530 -297 899 -74 145 -91 198 -91 291 0 60 5
82 31 133 117 234 501 311 663 132 48 -53 91 -141 115 -236 18 -71 81 -395 81
-418 0 -5 2 -7 5 -4 7 7 -50 342 -76 443 -11 44 -29 99 -39 122 -77 175 -226
247 -439 212z"/>
<path d="M2161 3020 c-62 -13 -159 -61 -206 -103 -100 -87 -130 -219 -80 -357
15 -41 43 -108 62 -149 171 -368 283 -721 283 -892 0 -141 -31 -194 -167 -286
-57 -39 -79 -59 -68 -61 23 -5 179 101 211 144 33 43 54 113 54 183 0 113
-114 506 -222 766 -143 344 -157 399 -123 513 39 130 219 236 371 218 163 -19
264 -145 317 -398 11 -54 22 -96 25 -94 9 9 -39 209 -68 285 -45 115 -112 189
-198 219 -48 16 -141 22 -191 12z"/>
<path d="M2175 2927 c-96 -32 -159 -89 -190 -171 -31 -82 -18 -155 83 -461
213 -640 232 -708 232 -839 0 -105 -18 -143 -104 -221 -85 -77 -67 -90 22 -16
68 57 98 110 108 192 10 85 -25 215 -261 972 -69 223 -76 309 -31 394 36 70
119 122 205 130 143 13 252 -97 312 -315 12 -45 24 -80 26 -78 3 2 -5 42 -18
88 -42 160 -108 267 -193 310 -49 25 -138 32 -191 15z"/>
<path d="M2195 2844 c-52 -19 -101 -67 -121 -121 -31 -82 -17 -184 70 -488 42
-148 90 -310 106 -360 80 -253 103 -343 108 -425 6 -114 -7 -156 -69 -224 -56
-62 -44 -78 13 -18 108 111 106 193 -13 579 -75 242 -125 418 -165 581 -31
125 -35 155 -32 240 4 115 24 156 99 197 57 31 111 32 164 4 61 -32 83 -57
125 -142 22 -44 40 -73 40 -65 0 28 -69 156 -101 187 -69 66 -143 85 -224 55z"/>
<path d="M2581 2484 c0 -11 3 -14 6 -6 3 7 2 16 -1 19 -3 4 -6 -2 -5 -13z"/>
<path d="M2622 2470 c0 -14 2 -19 5 -12 2 6 2 18 0 25 -3 6 -5 1 -5 -13z"/>
<path d="M2592 2440 c0 -14 2 -19 5 -12 2 6 2 18 0 25 -3 6 -5 1 -5 -13z"/>
<path d="M2632 2425 c0 -11 4 -31 8 -45 6 -20 8 -21 8 -5 0 11 -4 31 -8 45 -6
20 -8 21 -8 5z"/>
<path d="M2602 2395 c0 -11 3 -29 8 -40 11 -25 11 1 0 35 -6 20 -8 21 -8 5z"/>
<path d="M2651 2324 c0 -11 3 -14 6 -6 3 7 2 16 -1 19 -3 4 -6 -2 -5 -13z"/>
<path d="M2621 2314 c0 -11 3 -14 6 -6 3 7 2 16 -1 19 -3 4 -6 -2 -5 -13z"/>
<path d="M2662 2280 c0 -14 2 -19 5 -12 2 6 2 18 0 25 -3 6 -5 1 -5 -13z"/>
<path d="M2691 2284 c0 -11 3 -14 6 -6 3 7 2 16 -1 19 -3 4 -6 -2 -5 -13z"/>
<path d="M2631 2274 c0 -11 3 -14 6 -6 3 7 2 16 -1 19 -3 4 -6 -2 -5 -13z"/>
<path d="M2702 2240 c0 -14 2 -19 5 -12 2 6 2 18 0 25 -3 6 -5 1 -5 -13z"/>
<path d="M2641 2234 c0 -11 3 -14 6 -6 3 7 2 16 -1 19 -3 4 -6 -2 -5 -13z"/>
<path d="M2671 2234 c0 -11 3 -14 6 -6 3 7 2 16 -1 19 -3 4 -6 -2 -5 -13z"/>
<path d="M2731 2130 c0 -8 4 -22 9 -30 12 -18 12 -2 0 25 -6 13 -9 15 -9 5z"/>
<path d="M2751 2078 c-1 -12 31 -89 35 -85 3 2 -4 24 -15 48 -11 24 -20 41
-20 37z"/>
<path d="M2730 2045 c0 -5 5 -17 10 -25 5 -8 10 -10 10 -5 0 6 -5 17 -10 25
-5 8 -10 11 -10 5z"/>
<path d="M2800 2026 c0 -11 30 -66 36 -66 2 0 -3 15 -12 33 -19 36 -24 44 -24
33z"/>
<path d="M2760 1971 c0 -6 4 -13 10 -16 6 -3 7 1 4 9 -7 18 -14 21 -14 7z"/>
<path d="M2790 1974 c0 -19 98 -163 148 -216 98 -105 253 -192 407 -228 44
-11 141 -28 215 -40 247 -37 325 -61 400 -120 47 -37 97 -111 106 -156 4 -24
12 -34 25 -34 35 0 13 84 -41 156 -65 87 -167 133 -348 158 -59 8 -161 22
-227 31 -317 44 -506 164 -663 425 -12 19 -22 30 -22 24z"/>
<path d="M2840 1944 c0 -13 67 -102 115 -153 54 -57 130 -113 210 -153 100
-51 250 -81 540 -108 177 -16 262 -42 335 -102 56 -46 102 -121 115 -187 9
-41 17 -57 30 -60 16 -3 17 2 11 50 -15 116 -93 223 -197 271 -72 34 -195 56
-359 63 -263 12 -405 46 -546 131 -70 42 -173 140 -215 207 -29 44 -39 55 -39
41z"/>
<path d="M2766 1897 c3 -10 9 -15 12 -12 3 3 0 11 -7 18 -10 9 -11 8 -5 -6z"/>
<path d="M2810 1816 c0 -2 8 -10 18 -17 15 -13 16 -12 3 4 -13 16 -21 21 -21
13z"/>
<path d="M2856 1808 c14 -25 88 -102 147 -151 125 -104 248 -156 519 -216 102
-23 204 -48 226 -55 104 -37 174 -92 212 -166 11 -22 27 -40 35 -40 20 0 19 8
-6 55 -63 119 -151 164 -421 215 -352 67 -495 133 -653 302 -38 40 -64 65 -59
56z"/>
<path d="M2840 1776 c0 -2 8 -10 18 -17 15 -13 16 -12 3 4 -13 16 -21 21 -21
13z"/>
<path d="M2925 1680 c33 -33 62 -60 64 -60 3 0 -21 27 -54 60 -33 33 -62 60
-64 60 -3 0 21 -27 54 -60z"/>
<path d="M3000 1616 c0 -2 8 -10 18 -17 15 -13 16 -12 3 4 -13 16 -21 21 -21
13z"/>
<path d="M3020 1566 c0 -2 8 -10 18 -17 15 -13 16 -12 3 4 -13 16 -21 21 -21
13z"/>
<path d="M3100 1545 c0 -10 138 -73 225 -103 50 -17 153 -49 230 -72 77 -23
161 -53 186 -65 43 -22 95 -71 117 -110 5 -10 17 -15 27 -14 15 3 11 12 -23
56 -55 69 -144 112 -342 163 -199 52 -269 75 -352 117 -38 18 -68 31 -68 28z"/>
<path d="M3110 1506 c0 -3 14 -12 30 -21 17 -9 30 -13 30 -11 0 3 -13 12 -30
21 -16 9 -30 13 -30 11z"/>
<path d="M3200 1455 c14 -8 30 -14 35 -14 6 0 -1 6 -15 14 -14 8 -29 14 -35
14 -5 0 1 -6 15 -14z"/>
<path d="M3262 1431 c9 -6 97 -40 195 -75 209 -74 223 -81 286 -136 26 -23 51
-39 55 -35 9 9 -73 82 -121 106 -20 11 -117 46 -215 78 -97 32 -186 62 -197
66 -17 6 -18 5 -3 -4z"/>
</g>
</svg>
