<?xml version="1.0" encoding="UTF-8"?>
<svg version="1.1" xmlns="http://www.w3.org/2000/svg" width="1024" height="1024">
<path d="M0 0 C2.64 0.99 5.28 1.98 8 3 C8 3.66 8 4.32 8 5 C8.78375 5.20625 9.5675 5.4125 10.375 5.625 C14.35941767 7.13633084 17.67594651 9.12423418 21.2890625 11.359375 C24.00365647 13.00221285 26.76182622 14.50944533 29.5625 16 C33.83922763 18.30145936 37.85843141 20.8154944 41.83203125 23.60546875 C44.45806111 25.29464472 47.20156709 26.61666368 50 28 C51.92648842 29.08693951 53.84309938 30.19155166 55.75 31.3125 C57.30654297 32.22515625 57.30654297 32.22515625 58.89453125 33.15625 C62.53273153 35.31628841 66.14621113 37.51500349 69.74609375 39.73828125 C72.10183841 41.05700833 74.47504461 42.05147178 77 43 C77 43.66 77 44.32 77 45 C79.31 45.66 81.62 46.32 84 47 C84 47.66 84 48.32 84 49 C84.886875 49.268125 85.77375 49.53625 86.6875 49.8125 C89.8265439 50.93781762 92.1794037 52.24687828 95 54 C95.99515625 54.61617188 96.9903125 55.23234375 98.015625 55.8671875 C99.08296875 56.52976562 100.1503125 57.19234375 101.25 57.875 C108.98459782 62.64920044 116.84230224 66.99531201 125 71 C125 71.66 125 72.32 125 73 C125.969375 73.20625 126.93875 73.4125 127.9375 73.625 C131.9710988 74.78204826 134.94490794 76.84382596 138.359375 79.23046875 C141.4274575 81.28644711 144.59834024 83.12355528 147.8125 84.9375 C148.41102783 85.27587891 149.00955566 85.61425781 149.6262207 85.96289062 C150.83276954 86.64446495 152.03955538 87.32561988 153.24658203 88.00634766 C159.61631942 91.61604289 165.9207465 95.33984226 172.1875 99.125 C175.11791202 100.89064257 178.06220635 102.60616095 181.0625 104.25 C187.78113797 107.94286839 194.35073732 111.8970119 200.95214844 115.79394531 C203.77464769 117.45621836 206.60571214 119.10361171 209.4375 120.75 C213.03909066 122.84600768 216.62103328 124.96980385 220.1875 127.125 C224.09107588 129.47844205 228.04696529 131.7149072 232.0390625 133.9140625 C235.4197533 135.78623788 238.67036198 137.77785264 241.875 139.9375 C242.90625 140.618125 243.9375 141.29875 245 142 C245.56976563 142.38929688 246.13953125 142.77859375 246.7265625 143.1796875 C249.49219063 144.94627816 251.57534435 145.98153671 254.875 146.125 C258.53830279 144.806211 261.2769598 142.9106967 264.4453125 140.67578125 C268.06105705 138.30398551 271.89911311 136.51374722 275.8125 134.6875 C278.39791101 133.31875299 280.68808695 131.89448771 283.09375 130.25 C289.70883714 125.76237807 296.75949549 122.05167793 303.76171875 118.2109375 C309.29465689 115.15131032 314.63254126 111.98336029 319.85107422 108.41552734 C323.54220968 105.984125 327.42579758 103.91138479 331.3125 101.8125 C332.87263924 100.96769165 334.43128774 100.12012329 335.98828125 99.26953125 C336.66415283 98.90448486 337.34002441 98.53943848 338.03637695 98.16333008 C340.04663053 97.02250289 340.04663053 97.02250289 341.94433594 95.52661133 C344.17496568 93.87006409 346.44701909 92.60419657 348.90234375 91.3046875 C353.21150393 88.98784227 357.46403495 86.5958903 361.69140625 84.1328125 C362.81998047 83.47539062 363.94855469 82.81796875 365.11132812 82.140625 C366.85658199 81.12132563 368.60179152 80.10194496 370.3449707 79.07910156 C372.06237489 78.07233924 373.78308751 77.07122727 375.50390625 76.0703125 C376.51267822 75.48008301 377.5214502 74.88985352 378.56079102 74.28173828 C381 73 381 73 383 73 C383 72.34 383 71.68 383 71 C383.78375 70.62875 384.5675 70.2575 385.375 69.875 C389.14180041 67.99601057 392.6945774 65.79130429 396.2890625 63.60546875 C399.01095902 61.99350986 401.77179575 60.48915731 404.5625 59 C407.99206525 57.15552793 411.23773158 55.21789003 414.4375 53 C418.77671425 50.01921597 423.36142241 47.79546624 428.08984375 45.5 C431.45828675 43.7637824 434.49878458 41.74099951 437.60327148 39.57836914 C440.02145174 37.98587292 442.4767954 36.60810334 445.03125 35.24609375 C451.07759998 31.98032918 457.01116844 28.54025041 462.9375 25.0625 C464.94661458 23.88671875 466.95572917 22.7109375 468.96484375 21.53515625 C469.9511377 20.95693115 470.93743164 20.37870605 471.95361328 19.78295898 C476.09164942 17.36109026 480.23750697 14.95270968 484.3840332 12.54541016 C486.70240245 11.17580891 488.98299507 9.76502786 491.25 8.3125 C496.49310571 5.00967042 501.75424398 1.7807195 508 1 C509.07824111 4.50318946 509.12152888 7.73037009 509.11581039 11.38438416 C509.11617465 12.0260064 509.11653891 12.66762864 509.11691421 13.32869399 C509.11689356 15.48730949 509.10966473 17.64584067 509.10247803 19.80444336 C509.10093215 21.36421899 509.09982059 22.92399509 509.09910703 24.48377132 C509.09582787 28.77682199 509.08619264 33.06983866 509.07549977 37.36287642 C509.06504085 41.99005121 509.06034024 46.61723245 509.05482483 51.24441528 C509.04160097 61.36397275 509.0207404 71.48350585 508.99825954 81.60304642 C508.98424719 87.91821341 508.97173961 94.23338281 508.9595108 100.54855347 C508.92539469 118.02454974 508.88939378 135.50053975 508.84641647 152.97651672 C508.84366843 154.09512705 508.84092038 155.21373737 508.83808906 156.36624497 C508.83533239 157.48756107 508.83257572 158.60887718 508.82973552 159.76417255 C508.8241501 162.03646659 508.81856769 164.30876064 508.81298828 166.58105469 C508.8088345 168.27176639 508.8088345 168.27176639 508.80459681 169.99663389 C508.76005089 188.27453697 508.72901114 206.5524361 508.70378849 224.83037508 C508.67771825 243.58423809 508.64048843 262.33805165 508.59196877 281.09187031 C508.56497463 291.62634333 508.54282465 302.16077774 508.53295135 312.69528198 C508.52449191 321.66231287 508.5058751 330.62924937 508.47384754 339.59622836 C508.45780456 344.17388478 508.44666256 348.75141823 508.44845009 353.32910538 C508.44996893 357.51615923 508.43780849 361.70293764 508.41455176 365.88992512 C508.40856319 367.40802465 508.40767449 368.92615423 508.41228315 370.44425857 C508.41779216 372.50170818 508.40502802 374.55825202 508.38755417 376.61561584 C508.38511349 377.76020295 508.38267282 378.90479006 508.38015819 380.08406162 C507.95535841 383.3424157 507.2927673 384.68319939 505 387 C503.34424227 387.74981585 501.68302516 388.49140211 499.98925781 389.15087891 C496.22807851 390.75635038 492.83541408 393.02436895 489.375 395.1875 C488.58738281 395.67436279 487.79976562 396.16122559 486.98828125 396.6628418 C485.39950036 397.64533486 483.81191305 398.62976094 482.22558594 399.61621094 C479.15627118 401.52460015 476.07833833 403.41870041 473 405.3125 C471.96617187 405.94929688 470.93234375 406.58609375 469.8671875 407.2421875 C465.59708364 409.86009859 461.29980842 412.43128328 457 415 C454.60392476 416.43709872 452.2080906 417.87459402 449.8125 419.3125 C448.52345195 420.08596158 447.23438928 420.85939879 445.9453125 421.6328125 C445.29594727 422.02243164 444.64658203 422.41205078 443.97753906 422.81347656 C437.35400391 426.78759766 437.35400391 426.78759766 430.73046875 430.76171875 C430.14370361 431.11379395 429.55693848 431.46586914 428.95239258 431.82861328 C427.52259834 432.68645406 426.09273886 433.54418609 424.6628418 434.40185547 C420.52257352 436.88545363 416.38316021 439.37044653 412.24609375 441.859375 C403.43534926 447.15742193 394.6077156 452.42364077 385.7409668 457.62744141 C374.95553583 463.95788054 364.27947941 470.45992609 353.66796875 477.078125 C347.7489617 480.75731799 341.79195341 484.22133151 335.6328125 487.48046875 C331.98896575 489.58351977 328.69402289 492.08550326 325.38671875 494.6796875 C322.40592749 496.32863585 320.35666687 496.31246828 317 496 C316 495 316 495 315.87580967 493.048069 C315.87631289 492.18531231 315.87681612 491.32255562 315.87733459 490.43365479 C315.87570312 489.44663574 315.87407166 488.4596167 315.87239075 487.44268799 C315.87591049 486.35075134 315.87943024 485.2588147 315.88305664 484.13378906 C315.88302643 482.99075317 315.88299622 481.84771729 315.88296509 480.67004395 C315.88536741 476.86852608 315.89652905 473.06711862 315.91015625 469.265625 C315.91461699 467.97094048 315.91907772 466.67625595 315.92367363 465.34233856 C315.94408906 459.90188458 315.96691192 454.46146432 315.99814701 449.02106094 C316.04268829 441.22113994 316.06729937 433.42173139 316.06439883 425.62167954 C316.06395932 419.47852511 316.09612871 413.33591639 316.13961601 407.1929245 C316.15328688 404.57905116 316.15673493 401.96510396 316.14985847 399.35120392 C316.14243563 395.69462064 316.17227961 392.04013199 316.21118164 388.38378906 C316.19520683 386.75802948 316.19520683 386.75802948 316.1789093 385.09942627 C316.30889687 377.93290365 316.30889687 377.93290365 318.30393791 375.23984528 C321.14916156 372.8135479 324.49166366 371.01315447 327.8125 369.3125 C332.51325211 366.82349586 337.11232556 364.20983195 341.6875 361.5 C347.8104082 357.87652457 353.94835791 354.28064691 360.10009766 350.70629883 C371.50178748 344.08619729 371.50178748 344.08619729 382.8125 337.3125 C383.76769531 336.73113281 384.72289062 336.14976562 385.70703125 335.55078125 C387.83996326 334.10823609 389.39530342 333.00030057 391 331 C391.45869391 328.61293103 391.45869391 328.61293103 391.39872742 325.89375305 C391.41126556 324.8378598 391.42380371 323.78196655 391.4367218 322.69407654 C391.43528671 321.53602005 391.43385162 320.37796356 391.43237305 319.18481445 C391.4425647 317.96518005 391.45275635 316.74554565 391.46325684 315.48895264 C391.48829656 312.14406781 391.50011694 308.79962232 391.50611091 305.45468163 C391.51548353 301.95923623 391.54168595 298.46391838 391.56611633 294.96855164 C391.6098158 288.3494325 391.6383415 281.73033808 391.66143972 275.1111185 C391.68847299 267.57544799 391.73238559 260.03990558 391.77772844 252.50432646 C391.87062402 237.00295011 391.94228216 221.50154965 392 206 C390.71186753 206.47391348 389.42457723 206.95011648 388.13764954 207.42729187 C387.42070073 207.69223292 386.70375193 207.95717398 385.9650774 208.23014355 C383.8545859 209.05696874 382.00215681 210.02961008 380.10546875 211.26953125 C379.46552979 211.68041992 378.82559082 212.09130859 378.16625977 212.51464844 C377.51326904 212.94293945 376.86027832 213.37123047 376.1875 213.8125 C370.70961159 217.32740946 365.1920119 220.59210382 359.4375 223.640625 C357.04153083 224.97683858 354.81655015 226.43826525 352.5625 228 C348.22328575 230.98078403 343.63857759 233.20453376 338.91015625 235.5 C335.49181757 237.26193564 332.41070379 239.32624353 329.25390625 241.51171875 C325.98535882 243.66997971 322.54210385 245.45602515 319.08984375 247.30078125 C312.95005267 250.67727824 306.99001277 254.36640852 301 258 C295.42130973 261.37917937 289.8308292 264.6983653 284.10546875 267.82421875 C281.70421437 269.16517899 279.35642213 270.58150679 277 272 C275.63368871 272.80487469 274.26641224 273.60811206 272.8984375 274.41015625 C271.79242187 275.05887695 271.79242187 275.05887695 270.6640625 275.72070312 C269.13050198 276.61964176 267.59664478 277.51807446 266.0625 278.41601562 C265.32773437 278.84720703 264.59296875 279.27839844 263.8359375 279.72265625 C263.17126465 280.11203369 262.5065918 280.50141113 261.82177734 280.90258789 C260.18542613 281.888302 258.58947254 282.94035164 257 284 C250.34167489 284.93216552 246.41229181 282.43870132 241 279 C240.10796875 278.43410156 239.2159375 277.86820313 238.296875 277.28515625 C236.43236629 276.09509971 234.57037855 274.90108422 232.7109375 273.703125 C229.5598832 271.72350011 226.34393062 269.90812984 223.0703125 268.140625 C220.67493806 266.82090927 218.34374342 265.40941907 216 264 C214.40979506 263.05830516 212.81861959 262.11824764 211.2265625 261.1796875 C193.81134051 250.90545477 193.81134051 250.90545477 185.75 246.0625 C185.14913574 245.70164307 184.54827148 245.34078613 183.92919922 244.96899414 C181.36586553 243.42790384 178.80568692 241.88186648 176.25 240.328125 C172.03231232 237.77115184 167.78649374 235.32788462 163.4375 233 C159.99844952 231.14783256 156.72295334 229.20608571 153.5 227 C150.47237587 224.9320956 147.42441793 223.09665775 144.1875 221.375 C137.55712375 217.84195666 131.1566757 213.93583609 124.72924805 210.05029297 C123.88918213 209.54256348 123.04911621 209.03483398 122.18359375 208.51171875 C121.42618896 208.05240967 120.66878418 207.59310059 119.88842773 207.11987305 C118.00673588 205.97355061 118.00673588 205.97355061 116 205 C114.71244188 210.91193374 114.86698384 216.77174022 114.88647461 222.78857422 C114.88632858 223.96963242 114.88618256 225.15069061 114.8860321 226.36753845 C114.88660783 229.59230442 114.89161004 232.81702654 114.89860606 236.04178381 C114.90487342 239.41702425 114.90544607 242.79226563 114.90663147 246.16751099 C114.90973483 252.55281833 114.91793477 258.93810847 114.92798096 265.32340825 C114.93917304 272.59547435 114.94466034 279.86754129 114.94967639 287.13961387 C114.96011824 302.09308548 114.97769836 317.04654102 115 332 C115.76642822 332.29567871 116.53285645 332.59135742 117.32250977 332.89599609 C120.43413139 334.17900448 123.09366428 335.82474082 125.9375 337.625 C131.80220199 341.30434671 137.77056563 344.75429173 143.80859375 348.140625 C146.96253527 349.97817232 149.96502181 351.97395803 153 354 C154.65340592 354.94037462 156.32020907 355.85761107 158 356.75 C164.73892537 360.3750771 171.36745772 364.18507787 178 368 C178 368.66 178 369.32 178 370 C178.86625 370.2475 179.7325 370.495 180.625 370.75 C184.52075571 372.19287249 186.93003485 373.14746708 190 376 C190.9058885 379.77348079 190.76747478 383.4985699 190.69702148 387.36206055 C190.69950394 388.52171326 190.70198639 389.68136597 190.70454407 390.87615967 C190.70546326 394.71367378 190.66362884 398.54945993 190.62109375 402.38671875 C190.61244204 405.04664428 190.60604711 407.70648183 190.60255432 410.3664093 C190.59060037 415.94087817 190.5567965 421.514852 190.50756836 427.08911133 C190.43810984 434.95947103 190.4088148 442.82960958 190.38716781 450.70022523 C190.36888754 456.80408988 190.33928562 462.90790596 190.30859375 469.01171875 C190.30216795 470.3206629 190.29574215 471.62960705 190.28912163 472.97821617 C190.26824508 476.66092482 190.23995145 480.34348918 190.20874023 484.02612305 C190.20290924 485.12898148 190.19707825 486.2318399 190.19107056 487.36811829 C190.18102493 488.36499664 190.17097931 489.361875 190.16062927 490.38896179 C190.15375815 491.26039165 190.14688704 492.1318215 190.1398077 493.02965832 C190 495 190 495 189 496 C184.68447925 496.49023127 182.71002614 495.46947451 179.3125 492.875 C172.75117505 488.05305427 165.84890086 484.04328149 158.7668457 480.03588867 C157.86131958 479.52312378 157.86131958 479.52312378 156.9375 479 C156.03680786 478.4901355 156.03680786 478.4901355 155.11791992 477.9699707 C150.92627015 475.57810588 146.9075795 473.01153516 142.92578125 470.2890625 C140.71063645 468.80630838 138.41467183 467.49478221 136.0859375 466.19921875 C132.02728595 463.86587413 128.0666765 461.3654851 124.0859375 458.90234375 C119.55653699 456.110169 114.98391853 453.40851365 110.375 450.75 C106.29405706 448.37654361 102.28120019 445.93149041 98.3125 443.375 C94.38925465 440.84930557 90.41130476 438.53756544 86.3125 436.3125 C82.67823305 434.24980795 79.19918483 431.95058578 75.6875 429.6875 C73.32637265 428.20493166 70.94926471 426.82960084 68.5 425.5 C64.08852824 423.10520105 59.90520633 420.40557741 55.6875 417.6875 C52.62306092 415.76331732 49.48356682 414.03378626 46.3046875 412.30859375 C43.6797905 410.81818613 41.15887995 409.20270274 38.625 407.5625 C34.94655615 405.18897897 31.2372724 402.99809785 27.375 400.9375 C23.12636557 398.66834297 19.16367418 396.16521006 15.1953125 393.44140625 C12.27580422 391.52450491 9.23479605 389.88928238 6.140625 388.2734375 C3.45243035 386.67425601 1.26279435 385.18339142 -1 383 C-1.62970585 380.0700869 -1.62970585 380.0700869 -1.63644314 376.58158779 C-1.64449993 375.9362892 -1.65255671 375.29099062 -1.66085765 374.62613752 C-1.68184492 372.45450176 -1.6671294 370.28456813 -1.6526947 368.11289978 C-1.66043538 366.54414958 -1.67036179 364.97540888 -1.68229109 363.40668494 C-1.70874021 359.08876394 -1.70396552 354.77134889 -1.69418919 350.45337856 C-1.68905282 345.79957013 -1.71262587 341.14589745 -1.73266602 336.49214172 C-1.76737531 327.37293221 -1.77546443 318.25388194 -1.77471816 309.13461392 C-1.77486444 298.52247315 -1.80144445 287.91044887 -1.82923479 277.29835052 C-1.87792299 258.36874515 -1.90284481 239.43918283 -1.91430664 220.50952148 C-1.9254614 202.12632611 -1.95272482 183.74325031 -1.99829102 165.36010742 C-2.0010952 164.22779621 -2.00389938 163.09548499 -2.00678854 161.92886131 C-2.00959126 160.79853895 -2.01239397 159.66821658 -2.01528162 158.50364202 C-2.02091892 156.22799076 -2.02654914 153.95233949 -2.0321722 151.67668819 C-2.03494651 150.55451178 -2.03772082 149.43233538 -2.0405792 148.27615362 C-2.08316259 130.77744859 -2.11081881 113.27871624 -2.13702447 95.77998019 C-2.14673311 89.4300128 -2.15870962 83.08005429 -2.17232548 76.73009413 C-2.1938803 66.65936875 -2.20907225 56.58868072 -2.21073853 46.51793068 C-2.2116241 41.91407451 -2.21567932 37.31028018 -2.2283268 32.70643997 C-2.23977015 28.49670018 -2.24199631 24.28706264 -2.23666639 20.07731158 C-2.23635287 18.54979374 -2.23945266 17.02227084 -2.24620544 15.4947679 C-2.25482923 13.4272422 -2.25124394 11.36009496 -2.24444485 9.29257107 C-2.24553169 8.14152872 -2.24661853 6.99048636 -2.2477383 5.80456394 C-2 3 -2 3 0 0 Z M452.125 76.625 C445.3600533 80.83989476 438.44973229 84.78003449 431.51025391 88.69970703 C426.85705033 91.33526611 422.28103762 94.04810134 417.76245117 96.90795898 C415.41786313 98.36070068 413.00390937 99.65548138 410.5625 100.9375 C407.0902917 102.8023811 403.80000449 104.75368801 400.5625 107 C396.22328575 109.98078403 391.63857759 112.20453376 386.91015625 114.5 C383.49181757 116.26193564 380.41070379 118.32624353 377.25390625 120.51171875 C373.98535882 122.66997971 370.54210385 124.45602515 367.08984375 126.30078125 C360.95005267 129.67727824 354.99001277 133.36640852 349 137 C347.20918923 138.08474759 345.41764199 139.16828135 343.625 140.25 C342.93664062 140.66765625 342.24828125 141.0853125 341.5390625 141.515625 C339.33115748 142.80640024 337.10667053 144.05047438 334.8671875 145.28515625 C329.68539388 148.15374433 324.59168727 151.16260098 319.5 154.1875 C317.55611274 155.34005149 315.61210094 156.49239296 313.66796875 157.64453125 C312.71196777 158.21123535 311.7559668 158.77793945 310.77099609 159.36181641 C308.24322786 160.85620626 305.71113249 162.34274072 303.17578125 163.82421875 C297.11044695 167.36948216 291.07314889 170.91007522 285.1875 174.75 C280.60268335 177.72318413 275.8446867 180.08227463 270.92578125 182.44921875 C267.11131837 184.47103686 263.75320245 186.93436304 260.3515625 189.58203125 C257.3542064 191.38940711 255.52203228 191.96559675 252 192 C249.18307339 190.89274882 246.72755812 189.32045766 244.1875 187.6875 C242.67736281 186.7573586 241.16693775 185.82768445 239.65625 184.8984375 C238.88667969 184.41729492 238.11710938 183.93615234 237.32421875 183.44042969 C233.65119091 181.1640784 229.91884228 178.99142647 226.1875 176.8125 C224.88913438 176.0484974 223.59095666 175.28417539 222.29296875 174.51953125 C214.8874823 170.16781691 207.46300699 165.84855546 200.03515625 161.53515625 C190.52947653 156.0107286 181.05378839 150.46739711 171.72265625 144.65234375 C168.19841575 142.51352922 164.58214396 140.5753056 160.94921875 138.62890625 C154.86177013 135.26669953 148.94499269 131.60628193 143 128 C136.02728916 123.7741652 136.02728916 123.7741652 128.9375 119.75 C123.63737208 116.84012585 118.44874089 113.74345343 113.24462891 110.66650391 C108.80009796 108.04355052 104.32760038 105.49200814 99.79296875 103.02734375 C97.9979669 101.99883506 96.31935278 100.87313669 94.625 99.6875 C92.09951442 97.7296212 92.09951442 97.7296212 89 98 C89 97.34 89 96.68 89 96 C88.36610352 95.64284912 87.73220703 95.28569824 87.07910156 94.91772461 C57.3778298 78.17637029 57.3778298 78.17637029 50.50390625 73.76953125 C49.90980957 73.39223877 49.31571289 73.01494629 48.70361328 72.6262207 C47.03481435 71.56205572 45.37454323 70.48455172 43.71484375 69.40625 C42.37099609 68.71015625 42.37099609 68.71015625 41 68 C40.01 68.33 39.02 68.66 38 69 C37.61074825 106.15581081 37.31126716 143.31131412 37.1318894 180.4687519 C37.11062781 184.85710095 37.08862429 189.245446 37.06616211 193.63378906 C37.06170283 194.50741609 37.05724355 195.38104311 37.05264915 196.28114368 C36.97870835 210.42053959 36.84469174 224.55875854 36.68840247 238.69745658 C36.52933109 253.20905064 36.43498197 267.72002908 36.40049559 282.23245919 C36.37718602 291.18568953 36.30363129 300.13559355 36.16542006 309.0877995 C36.075435 315.2298126 36.04842205 321.37011092 36.07047658 327.51273505 C36.08135325 331.05641896 36.06491578 334.59430299 35.97350693 338.13694954 C35.01727669 351.80800373 35.01727669 351.80800373 39.65228581 364.07988596 C43.63836089 367.46292239 48.0033524 369.43620725 52.89263928 371.18140435 C56.12872908 372.43845019 58.84281321 374.23426301 61.75 376.125 C63.30847656 377.08986328 63.30847656 377.08986328 64.8984375 378.07421875 C66.43371094 379.02748047 66.43371094 379.02748047 68 380 C76.58933407 385.31266218 85.21925967 390.55072957 93.88671875 395.734375 C96.13449581 397.08054832 98.37996092 398.43051575 100.625 399.78125 C110.69854303 405.83947878 120.79759987 411.85203873 130.92993164 417.81152344 C131.81028076 418.33004883 132.69062988 418.84857422 133.59765625 419.3828125 C134.76566772 420.06947998 134.76566772 420.06947998 135.95727539 420.77001953 C137.66736023 421.79970848 139.33909558 422.89273039 141 424 C141.99 424 142.98 424 144 424 C144 424.66 144 425.32 144 426 C145.65 426.66 147.3 427.32 149 428 C151.3920333 425.6079667 150.48372976 419.72428559 150.625 416.5 C150.70234375 415.0459375 150.70234375 415.0459375 150.78125 413.5625 C151.055099 407.57003962 150.82268499 401.94297812 150 396 C148.68 395.67 147.36 395.34 146 395 C146 394.34 146 393.68 146 393 C144.69289063 392.25556641 144.69289063 392.25556641 143.359375 391.49609375 C121.97936045 379.30872998 121.97936045 379.30872998 114.4375 374.4375 C109.94262378 371.54008339 105.33230738 368.98269105 100.6171875 366.46484375 C97.3883837 364.65767744 94.37908217 362.61153542 91.34375 360.5 C87.79673757 358.22991204 84.00053672 356.46691713 80.1875 354.6875 C78 353 78 353 77.37079716 350.43790245 C76.93227671 346.3720932 76.86486169 342.39190209 76.87974548 338.30606079 C76.87889106 337.44338825 76.87803663 336.5807157 76.87715632 335.69190156 C76.87551245 332.80841439 76.88100497 329.9249857 76.88647461 327.04150391 C76.88675674 324.9716797 76.88659824 322.9018554 76.8860321 320.83203125 C76.88574515 315.21685438 76.89162544 309.60169887 76.89860606 303.98652697 C76.90485654 298.1168634 76.90544474 292.24719934 76.90663147 286.37753296 C76.90973978 275.26419752 76.91794644 264.15087191 76.92798096 253.03754079 C76.93915761 240.38468119 76.94465646 227.73182111 76.94967639 215.0789578 C76.96012946 189.05263308 76.97771924 163.02631709 77 137 C80.81878754 138.23399303 84.10223732 139.48345239 87.5 141.625 C91.63508164 144.18213948 95.82640514 146.61531542 100.0625 149 C104.82671152 151.69442417 109.41976416 154.55129093 113.9375 157.640625 C116.72361625 159.47692889 119.61954341 161.06139267 122.55078125 162.65234375 C125.39747709 164.21870749 128.1977091 165.85556313 131 167.5 C135.33894969 170.04256924 139.70710431 172.51846857 144.109375 174.94921875 C147.38475332 176.7696253 150.54112263 178.6831561 153.625 180.8125 C156.45823342 182.73060634 159.41969634 184.32745427 162.4375 185.9375 C166.26561344 187.99123113 169.7563365 190.17378698 173.22290039 192.77880859 C174.98094867 193.98690827 176.71103973 194.896036 178.63671875 195.80859375 C183.29472207 198.09684787 187.69561672 200.73869963 192.125 203.4375 C193.88372671 204.50064191 195.64285676 205.56311681 197.40234375 206.625 C198.3135498 207.17542969 199.22475586 207.72585938 200.16357422 208.29296875 C204.99087062 211.19815522 209.83797414 214.06962062 214.6875 216.9375 C216.03062256 217.73401978 216.03062256 217.73401978 217.40087891 218.54663086 C222.27255878 221.42617906 227.17310741 224.23880972 232.13134766 226.96679688 C235.48207128 228.81945723 238.70005953 230.79786621 241.875 232.9375 C242.90625 233.618125 243.9375 234.29875 245 235 C245.55816406 235.40089844 246.11632812 235.80179688 246.69140625 236.21484375 C249.80726705 238.28511368 251.43485594 239.10186547 255.1640625 238.4296875 C259.81599336 236.91031427 263.80949816 234.32963803 267.9375 231.75 C269.69959215 230.67035782 271.46265829 229.59230412 273.2265625 228.515625 C274.15629883 227.94650391 275.08603516 227.37738281 276.04394531 226.79101562 C281.26222862 223.62936 286.53805862 220.56673348 291.8125 217.5 C293.32348267 216.61973145 293.32348267 216.61973145 294.86499023 215.72167969 C298.84761999 213.40380725 302.83193422 211.09032383 306.83984375 208.81640625 C309.85305495 207.08446162 312.80389476 205.28080639 315.75 203.4375 C323.68882676 198.52952867 331.7758836 193.88541916 339.86425781 189.22949219 C347.92004694 184.59198029 355.91176532 179.85669985 363.875 175.0625 C370.63904475 170.99031365 377.44163442 167.0141692 384.3125 163.125 C389.79300166 159.99328477 395.17914758 156.7010393 400.58422852 153.44165039 C406.72519107 149.74576072 412.91231446 146.14674821 419.15234375 142.62109375 C421.02544596 141.55478728 422.87367494 140.44333338 424.69140625 139.28515625 C427 138 427 138 430 138 C430.28026646 165.9113197 430.49190467 193.8224287 430.62174606 221.73487186 C430.68363531 234.69506414 430.76801619 247.65438239 430.90527344 260.61401367 C431.02484442 271.90911337 431.10228958 283.20358018 431.12906194 294.49929518 C431.14471366 300.4812491 431.18151452 306.46139243 431.26876068 312.44276619 C431.35022196 318.07316352 431.37534005 323.70100523 431.35729218 329.33193588 C431.36059349 331.39804796 431.38446757 333.46424548 431.4304657 335.5298481 C431.70081297 348.2964148 431.70081297 348.2964148 430 353 C426.42431801 356.72042335 422.78036122 358.25297917 418 360 C416.46977359 360.95310395 414.96202515 361.94525715 413.5 363 C409.32523484 365.83261153 405.01439151 368.3602063 400.64453125 370.87890625 C396.02300573 373.55355306 391.45141965 376.31164666 386.875 379.0625 C386.05217529 379.5570166 385.22935059 380.0515332 384.3815918 380.56103516 C381.01976779 382.58221342 377.65809872 384.60364239 374.29785156 386.62744141 C373.41838867 387.15644043 372.53892578 387.68543945 371.6328125 388.23046875 C370.8402002 388.70766357 370.04758789 389.1848584 369.23095703 389.67651367 C367.17003958 390.89912622 365.09139183 392.08055309 363 393.25 C360.00212078 394.82821702 360.00212078 394.82821702 358 397 C356.9140584 402.3747236 356.84785202 407.66825628 356.875 413.125 C356.87113281 413.91003906 356.86726563 414.69507813 356.86328125 415.50390625 C356.86996748 419.46883962 357.02076054 423.12967261 358 427 C363.82804089 426.55806325 367.64832886 424.07327865 372.4375 421 C374.04913264 419.99033207 375.66111691 418.98122524 377.2734375 417.97265625 C378.07233398 417.46879395 378.87123047 416.96493164 379.69433594 416.44580078 C382.95789818 414.39933577 386.25550976 412.41276237 389.5625 410.4375 C390.16231689 410.07793213 390.76213379 409.71836426 391.38012695 409.34790039 C396.11199078 406.51633796 400.86771661 403.72606935 405.625 400.9375 C412.81273266 396.72249654 419.9199117 392.39392414 427 388 C429.16612755 386.665791 431.33279946 385.3324654 433.5 384 C434.57636719 383.33742188 435.65273438 382.67484375 436.76171875 381.9921875 C438.88860544 380.68372886 441.01618838 379.37640117 443.14453125 378.0703125 C449.35885118 374.25436758 455.56044286 370.41847063 461.75 366.5625 C462.45423096 366.12502441 463.15846191 365.68754883 463.8840332 365.23681641 C467.11352091 363.34444508 467.11352091 363.34444508 470 361 C470.0969847 359.43094107 470.1237165 357.85749849 470.12304783 356.28544521 C470.12503888 355.25933587 470.12702993 354.23322652 470.12908131 353.17602295 C470.12471205 351.46448401 470.12471205 351.46448401 470.12025452 349.71836853 C470.12110894 348.51694971 470.12196337 347.31553089 470.12284368 346.07770544 C470.12421189 342.72788054 470.12106434 339.37811335 470.11606562 336.0282954 C470.11176449 332.42159896 470.1132073 328.81490445 470.1139679 325.20820618 C470.11449335 318.95435599 470.11134435 312.7005162 470.10573006 306.44666862 C470.0976179 297.4045516 470.09500013 288.36243963 470.09374207 279.32031936 C470.0915511 264.65161305 470.0848898 249.98291228 470.07543945 235.31420898 C470.06626649 221.06127958 470.05918509 206.80835168 470.05493164 192.55541992 C470.05466892 191.67750595 470.05440619 190.79959197 470.05413551 189.89507454 C470.05283051 185.49102823 470.05156679 181.08698192 470.05032361 176.6829356 C470.0399496 140.12195315 470.02233007 103.560977 470 67 C464.55361381 67 456.64915555 73.80183244 452.125 76.625 Z " fill="#00BA4C" transform="translate(257,277)"/>
<path d="M0 0 C2.64 0.99 5.28 1.98 8 3 C8 3.66 8 4.32 8 5 C8.78375 5.20625 9.5675 5.4125 10.375 5.625 C14.35941767 7.13633084 17.67594651 9.12423418 21.2890625 11.359375 C24.00365647 13.00221285 26.76182622 14.50944533 29.5625 16 C33.83922763 18.30145936 37.85843141 20.8154944 41.83203125 23.60546875 C44.45806111 25.29464472 47.20156709 26.61666368 50 28 C51.92648842 29.08693951 53.84309938 30.19155166 55.75 31.3125 C57.30654297 32.22515625 57.30654297 32.22515625 58.89453125 33.15625 C62.53273153 35.31628841 66.14621113 37.51500349 69.74609375 39.73828125 C72.10183841 41.05700833 74.47504461 42.05147178 77 43 C77 43.66 77 44.32 77 45 C79.31 45.66 81.62 46.32 84 47 C84 47.66 84 48.32 84 49 C84.886875 49.268125 85.77375 49.53625 86.6875 49.8125 C89.8265439 50.93781762 92.1794037 52.24687828 95 54 C95.99515625 54.61617188 96.9903125 55.23234375 98.015625 55.8671875 C99.08296875 56.52976562 100.1503125 57.19234375 101.25 57.875 C108.98459782 62.64920044 116.84230224 66.99531201 125 71 C125 71.66 125 72.32 125 73 C125.969375 73.20625 126.93875 73.4125 127.9375 73.625 C131.9710988 74.78204826 134.94490794 76.84382596 138.359375 79.23046875 C141.4274575 81.28644711 144.59834024 83.12355528 147.8125 84.9375 C148.41102783 85.27587891 149.00955566 85.61425781 149.6262207 85.96289062 C150.83276954 86.64446495 152.03955538 87.32561988 153.24658203 88.00634766 C159.61631942 91.61604289 165.9207465 95.33984226 172.1875 99.125 C175.11791202 100.89064257 178.06220635 102.60616095 181.0625 104.25 C187.78113797 107.94286839 194.35073732 111.8970119 200.95214844 115.79394531 C203.77464769 117.45621836 206.60571214 119.10361171 209.4375 120.75 C213.03909066 122.84600768 216.62103328 124.96980385 220.1875 127.125 C224.09107588 129.47844205 228.04696529 131.7149072 232.0390625 133.9140625 C235.4197533 135.78623788 238.67036198 137.77785264 241.875 139.9375 C242.90625 140.618125 243.9375 141.29875 245 142 C245.56976563 142.38929688 246.13953125 142.77859375 246.7265625 143.1796875 C249.49219063 144.94627816 251.57534435 145.98153671 254.875 146.125 C258.53830279 144.806211 261.2769598 142.9106967 264.4453125 140.67578125 C268.06105705 138.30398551 271.89911311 136.51374722 275.8125 134.6875 C278.39791101 133.31875299 280.68808695 131.89448771 283.09375 130.25 C289.70883714 125.76237807 296.75949549 122.05167793 303.76171875 118.2109375 C309.29465689 115.15131032 314.63254126 111.98336029 319.85107422 108.41552734 C323.54220968 105.984125 327.42579758 103.91138479 331.3125 101.8125 C332.87263924 100.96769165 334.43128774 100.12012329 335.98828125 99.26953125 C336.66415283 98.90448486 337.34002441 98.53943848 338.03637695 98.16333008 C340.04663053 97.02250289 340.04663053 97.02250289 341.94433594 95.52661133 C344.17496568 93.87006409 346.44701909 92.60419657 348.90234375 91.3046875 C353.21150393 88.98784227 357.46403495 86.5958903 361.69140625 84.1328125 C362.81998047 83.47539062 363.94855469 82.81796875 365.11132812 82.140625 C366.85658199 81.12132563 368.60179152 80.10194496 370.3449707 79.07910156 C372.06237489 78.07233924 373.78308751 77.07122727 375.50390625 76.0703125 C376.51267822 75.48008301 377.5214502 74.88985352 378.56079102 74.28173828 C381 73 381 73 383 73 C383 72.34 383 71.68 383 71 C383.78375 70.62875 384.5675 70.2575 385.375 69.875 C389.14180041 67.99601057 392.6945774 65.79130429 396.2890625 63.60546875 C399.01095902 61.99350986 401.77179575 60.48915731 404.5625 59 C407.99206525 57.15552793 411.23773158 55.21789003 414.4375 53 C418.77671425 50.01921597 423.36142241 47.79546624 428.08984375 45.5 C431.45828675 43.7637824 434.49878458 41.74099951 437.60327148 39.57836914 C440.02145174 37.98587292 442.4767954 36.60810334 445.03125 35.24609375 C451.07759998 31.98032918 457.01116844 28.54025041 462.9375 25.0625 C464.94661458 23.88671875 466.95572917 22.7109375 468.96484375 21.53515625 C469.9511377 20.95693115 470.93743164 20.37870605 471.95361328 19.78295898 C476.09164942 17.36109026 480.23750697 14.95270968 484.3840332 12.54541016 C486.70240245 11.17580891 488.98299507 9.76502786 491.25 8.3125 C496.49310571 5.00967042 501.75424398 1.7807195 508 1 C509.07824111 4.50318946 509.12152888 7.73037009 509.11581039 11.38438416 C509.11617465 12.0260064 509.11653891 12.66762864 509.11691421 13.32869399 C509.11689356 15.48730949 509.10966473 17.64584067 509.10247803 19.80444336 C509.10093215 21.36421899 509.09982059 22.92399509 509.09910703 24.48377132 C509.09582787 28.77682199 509.08619264 33.06983866 509.07549977 37.36287642 C509.06504085 41.99005121 509.06034024 46.61723245 509.05482483 51.24441528 C509.04160097 61.36397275 509.0207404 71.48350585 508.99825954 81.60304642 C508.98424719 87.91821341 508.97173961 94.23338281 508.9595108 100.54855347 C508.92539469 118.02454974 508.88939378 135.50053975 508.84641647 152.97651672 C508.84366843 154.09512705 508.84092038 155.21373737 508.83808906 156.36624497 C508.83533239 157.48756107 508.83257572 158.60887718 508.82973552 159.76417255 C508.8241501 162.03646659 508.81856769 164.30876064 508.81298828 166.58105469 C508.8088345 168.27176639 508.8088345 168.27176639 508.80459681 169.99663389 C508.76005089 188.27453697 508.72901114 206.5524361 508.70378849 224.83037508 C508.67771825 243.58423809 508.64048843 262.33805165 508.59196877 281.09187031 C508.56497463 291.62634333 508.54282465 302.16077774 508.53295135 312.69528198 C508.52449191 321.66231287 508.5058751 330.62924937 508.47384754 339.59622836 C508.45780456 344.17388478 508.44666256 348.75141823 508.44845009 353.32910538 C508.44996893 357.51615923 508.43780849 361.70293764 508.41455176 365.88992512 C508.40856319 367.40802465 508.40767449 368.92615423 508.41228315 370.44425857 C508.41779216 372.50170818 508.40502802 374.55825202 508.38755417 376.61561584 C508.38511349 377.76020295 508.38267282 378.90479006 508.38015819 380.08406162 C507.95535841 383.3424157 507.2927673 384.68319939 505 387 C503.34424227 387.74981585 501.68302516 388.49140211 499.98925781 389.15087891 C496.22807851 390.75635038 492.83541408 393.02436895 489.375 395.1875 C488.58738281 395.67436279 487.79976562 396.16122559 486.98828125 396.6628418 C485.39950036 397.64533486 483.81191305 398.62976094 482.22558594 399.61621094 C479.15627118 401.52460015 476.07833833 403.41870041 473 405.3125 C471.96617187 405.94929688 470.93234375 406.58609375 469.8671875 407.2421875 C465.59708364 409.86009859 461.29980842 412.43128328 457 415 C454.60392476 416.43709872 452.2080906 417.87459402 449.8125 419.3125 C448.52345195 420.08596158 447.23438928 420.85939879 445.9453125 421.6328125 C445.29594727 422.02243164 444.64658203 422.41205078 443.97753906 422.81347656 C437.35400391 426.78759766 437.35400391 426.78759766 430.73046875 430.76171875 C430.14370361 431.11379395 429.55693848 431.46586914 428.95239258 431.82861328 C427.52259834 432.68645406 426.09273886 433.54418609 424.6628418 434.40185547 C420.52257352 436.88545363 416.38316021 439.37044653 412.24609375 441.859375 C403.43534926 447.15742193 394.6077156 452.42364077 385.7409668 457.62744141 C374.95553583 463.95788054 364.27947941 470.45992609 353.66796875 477.078125 C347.7489617 480.75731799 341.79195341 484.22133151 335.6328125 487.48046875 C331.98896575 489.58351977 328.69402289 492.08550326 325.38671875 494.6796875 C322.40592749 496.32863585 320.35666687 496.31246828 317 496 C316 495 316 495 315.87580967 493.048069 C315.87631289 492.18531231 315.87681612 491.32255562 315.87733459 490.43365479 C315.87570312 489.44663574 315.87407166 488.4596167 315.87239075 487.44268799 C315.87591049 486.35075134 315.87943024 485.2588147 315.88305664 484.13378906 C315.88302643 482.99075317 315.88299622 481.84771729 315.88296509 480.67004395 C315.88536741 476.86852608 315.89652905 473.06711862 315.91015625 469.265625 C315.91461699 467.97094048 315.91907772 466.67625595 315.92367363 465.34233856 C315.94408906 459.90188458 315.96691192 454.46146432 315.99814701 449.02106094 C316.04268829 441.22113994 316.06729937 433.42173139 316.06439883 425.62167954 C316.06395932 419.47852511 316.09612871 413.33591639 316.13961601 407.1929245 C316.15328688 404.57905116 316.15673493 401.96510396 316.14985847 399.35120392 C316.14243563 395.69462064 316.17227961 392.04013199 316.21118164 388.38378906 C316.19520683 386.75802948 316.19520683 386.75802948 316.1789093 385.09942627 C316.30889687 377.93290365 316.30889687 377.93290365 318.30393791 375.23984528 C321.14916156 372.8135479 324.49166366 371.01315447 327.8125 369.3125 C332.51325211 366.82349586 337.11232556 364.20983195 341.6875 361.5 C347.8104082 357.87652457 353.94835791 354.28064691 360.10009766 350.70629883 C371.50178748 344.08619729 371.50178748 344.08619729 382.8125 337.3125 C383.76769531 336.73113281 384.72289062 336.14976562 385.70703125 335.55078125 C387.83996326 334.10823609 389.39530342 333.00030057 391 331 C391.45869391 328.61293103 391.45869391 328.61293103 391.39872742 325.89375305 C391.41126556 324.8378598 391.42380371 323.78196655 391.4367218 322.69407654 C391.43528671 321.53602005 391.43385162 320.37796356 391.43237305 319.18481445 C391.4425647 317.96518005 391.45275635 316.74554565 391.46325684 315.48895264 C391.48829656 312.14406781 391.50011694 308.79962232 391.50611091 305.45468163 C391.51548353 301.95923623 391.54168595 298.46391838 391.56611633 294.96855164 C391.6098158 288.3494325 391.6383415 281.73033808 391.66143972 275.1111185 C391.68847299 267.57544799 391.73238559 260.03990558 391.77772844 252.50432646 C391.87062402 237.00295011 391.94228216 221.50154965 392 206 C390.71186753 206.47391348 389.42457723 206.95011648 388.13764954 207.42729187 C387.42070073 207.69223292 386.70375193 207.95717398 385.9650774 208.23014355 C383.8545859 209.05696874 382.00215681 210.02961008 380.10546875 211.26953125 C379.46552979 211.68041992 378.82559082 212.09130859 378.16625977 212.51464844 C377.51326904 212.94293945 376.86027832 213.37123047 376.1875 213.8125 C370.70961159 217.32740946 365.1920119 220.59210382 359.4375 223.640625 C357.04153083 224.97683858 354.81655015 226.43826525 352.5625 228 C348.22328575 230.98078403 343.63857759 233.20453376 338.91015625 235.5 C335.49181757 237.26193564 332.41070379 239.32624353 329.25390625 241.51171875 C325.98535882 243.66997971 322.54210385 245.45602515 319.08984375 247.30078125 C312.95005267 250.67727824 306.99001277 254.36640852 301 258 C295.42130973 261.37917937 289.8308292 264.6983653 284.10546875 267.82421875 C281.70421437 269.16517899 279.35642213 270.58150679 277 272 C275.63368871 272.80487469 274.26641224 273.60811206 272.8984375 274.41015625 C271.79242187 275.05887695 271.79242187 275.05887695 270.6640625 275.72070312 C269.13050198 276.61964176 267.59664478 277.51807446 266.0625 278.41601562 C265.32773437 278.84720703 264.59296875 279.27839844 263.8359375 279.72265625 C263.17126465 280.11203369 262.5065918 280.50141113 261.82177734 280.90258789 C260.18542613 281.888302 258.58947254 282.94035164 257 284 C250.34167489 284.93216552 246.41229181 282.43870132 241 279 C240.10796875 278.43410156 239.2159375 277.86820313 238.296875 277.28515625 C236.43513721 276.0968683 234.57703544 274.902864 232.72265625 273.703125 C229.48911581 271.68042252 226.16898177 269.88244272 222.77734375 268.140625 C221 267 221 267 219 264 C223.3975898 265.31225647 227.01372388 267.03312005 230.9140625 269.44140625 C232.00460937 270.10720703 233.09515625 270.77300781 234.21875 271.45898438 C235.35454955 272.15953586 236.4899628 272.86071402 237.625 273.5625 C239.86357266 274.94494242 242.10617705 276.31996525 244.3515625 277.69140625 C245.33979004 278.30185791 246.32801758 278.91230957 247.34619141 279.54125977 C249.67999978 280.82410291 251.36728418 281.71981345 254 282 C256.66098631 280.79717266 259.05546449 279.53590858 261.5625 278.0625 C262.72531494 277.39782715 262.72531494 277.39782715 263.91162109 276.71972656 C266.61800879 275.16348814 269.31008331 273.58453404 272 272 C273.0223877 271.39849121 274.04477539 270.79698242 275.09814453 270.17724609 C280.19324491 267.17377821 285.28125922 264.15858886 290.36282349 261.1322937 C297.32364244 256.98691783 304.30935227 252.8859871 311.3125 248.8125 C319.67850976 243.94399738 328.02397849 239.04264218 336.35180664 234.10913086 C341.62298082 230.98872735 346.90251923 227.88321866 352.19140625 224.79296875 C354.07984757 223.68919154 355.96827464 222.58538994 357.85668945 221.48156738 C359.11277687 220.74743247 360.36896083 220.01346273 361.62524414 219.27966309 C370.12032828 214.31517031 378.569574 209.28517576 386.89941406 204.04638672 C391.79045704 201 391.79045704 201 394 201 C394.37444146 218.03732633 394.65622509 235.07336219 394.82899475 252.11386681 C394.91136394 260.02702053 395.02355494 267.93761251 395.20703125 275.84912109 C395.36695495 282.74835338 395.46982922 289.64573071 395.50541592 296.54676497 C395.52621177 300.1991268 395.57471748 303.84618474 395.69168091 307.49683762 C396.37429207 329.65011503 396.37429207 329.65011503 392.46392632 335.16724396 C388.78568375 338.57734754 384.71071823 340.52481089 380.02903748 342.21067429 C376.80503964 343.46485733 374.04986468 345.2789313 371.12890625 347.125 C368.94130398 348.41869766 366.75249386 349.71035499 364.5625 351 C363.38905491 351.69318124 362.2157167 352.38654344 361.04248047 353.08007812 C356.01366581 356.05127119 350.97979778 359.01382648 345.94140625 361.96875 C345.20599609 362.40010254 344.47058594 362.83145508 343.71289062 363.27587891 C342.34869788 364.07569912 340.98413041 364.87488063 339.61914062 365.67333984 C334.15959858 368.87743278 328.78928689 372.21479453 323.44140625 375.6015625 C321 377 321 377 319 377 C319 415.61 319 454.22 319 494 C332.58133979 486.36300653 332.58133979 486.36300653 345.98046875 478.43359375 C350.50131121 475.69488704 355.0308774 472.97082626 359.5625 470.25 C360.40498291 469.74404297 361.24746582 469.23808594 362.11547852 468.71679688 C368.29035759 465.01337961 374.48485507 461.34418334 380.6875 457.6875 C391.75455079 451.16143159 402.77158831 444.55346881 413.78271484 437.93359375 C419.22821059 434.66084171 424.67677025 431.39319788 430.125 428.125 C432.22136827 426.867211 434.31772296 425.60939938 436.4140625 424.3515625 C446.0234375 418.5859375 446.0234375 418.5859375 447.79638672 417.5222168 C448.93088429 416.84148574 450.06532453 416.16065912 451.19970703 415.47973633 C455.01713476 413.18854213 458.83633923 410.90033361 462.65625 408.61328125 C464.77083582 407.34635831 466.88541913 406.0794312 469 404.8125 C469.94166016 404.24917969 470.88332031 403.68585938 471.85351562 403.10546875 C473.87493187 401.89395327 475.87482891 400.64598552 477.8545599 399.36748695 C481.00720729 397.43883177 484.19367378 396.11570536 487.64135838 394.79344749 C494.38413536 391.92031384 500.34019333 388.79056608 505 383 C509.03216318 372.4824948 507.96875643 360.40766469 507.66950929 349.33328819 C507.56959836 344.69276095 507.60383488 340.05290696 507.6212616 335.41160583 C507.63328738 327.38277693 507.56152083 319.35826663 507.43179131 311.33052444 C507.24436283 299.72474147 507.18492041 288.12103341 507.1560675 276.51390116 C507.10580473 257.68061122 506.95295716 238.84962052 506.73510742 220.01757812 C506.52378739 201.73091082 506.36108641 183.44486936 506.26342773 165.15722656 C506.25738509 164.02883337 506.25134245 162.90044017 506.2451167 161.73785324 C506.21509949 156.07668305 506.18603453 150.41550843 506.15744293 144.75433087 C505.91924571 97.83462848 505.51435833 50.91743324 505 4 C504.31240003 4.41395523 503.62480005 4.82791046 502.91636372 5.25440979 C502.01489707 5.79637497 501.11343042 6.33834015 500.18464661 6.89672852 C499.29079663 7.43443375 498.39694666 7.97213898 497.47601032 8.52613831 C494.89522518 10.06236791 492.28653674 11.52383405 489.63671875 12.9375 C483.63087403 16.18219422 477.71940813 19.57919014 471.8125 23 C470.68537598 23.65154053 469.55825195 24.30308105 468.39697266 24.97436523 C456.91198981 31.616403 445.45423976 38.30512917 434 45 C430.04214526 47.31332038 426.08383464 49.62585692 422.125 51.9375 C421.13709473 52.51467773 420.14918945 53.09185547 419.13134766 53.68652344 C413.99682291 56.68256396 408.85374561 59.6624802 403.6953125 62.6171875 C391.70631495 69.48798428 379.82513619 76.4981911 368.03952026 83.7098999 C358.20330818 89.72340422 348.23348352 95.46530532 338.171875 101.09375 C331.49402201 104.83139079 324.91432327 108.72893594 318.32910156 112.62646484 C313.70853557 115.35133951 309.07193463 118.04880575 304.4375 120.75 C303.42848633 121.3385376 302.41947266 121.9270752 301.37988281 122.53344727 C296.11776298 125.60218587 290.85333143 128.66688531 285.5859375 131.7265625 C284.54163574 132.3340332 283.49733398 132.94150391 282.42138672 133.56738281 C280.37212696 134.75889524 278.32169663 135.94839704 276.27001953 137.13574219 C272.05126058 139.5868883 267.86084921 142.04882557 263.78125 144.7265625 C263.18014404 145.1179541 262.57903809 145.5093457 261.9597168 145.91259766 C260.45793829 146.9039896 258.97216116 147.91951323 257.48828125 148.9375 C255 150 255 150 252.6394043 149.23266602 C250.09677484 148.0451962 247.69905397 146.76322044 245.28125 145.33984375 C243.90549805 144.53353516 243.90549805 144.53353516 242.50195312 143.7109375 C241.51130859 143.12570312 240.52066406 142.54046875 239.5 141.9375 C238.45263672 141.32261719 237.40527344 140.70773437 236.32617188 140.07421875 C234.06426422 138.7460287 231.80308468 137.41667825 229.54296875 136.08544922 C225.96885456 133.98072331 222.39113079 131.88219138 218.8125 129.78515625 C218.21241623 129.43350403 217.61233246 129.08185181 216.99406433 128.71954346 C215.77546121 128.00545652 214.55684852 127.29138592 213.33822632 126.57733154 C211.48999987 125.49413921 209.64205152 124.41047396 207.79418945 123.32666016 C197.179286 117.10113166 186.55147446 110.8978756 175.91943359 104.70166016 C171.94953456 102.38771165 167.98047398 100.07232717 164.01147461 97.75683594 C162.00584879 96.5867927 160.00015231 95.41687057 157.99438477 94.24707031 C153.01857047 91.34501777 148.0435858 88.44156143 143.0703125 85.53515625 C131.63780531 78.85616521 120.18464605 72.21452626 108.71142578 65.60571289 C101.46077963 61.42672377 94.22531821 57.22261177 87 53 C78.72222936 48.16323578 70.43059996 43.35132558 62.125 38.5625 C61.04766602 37.94133301 59.97033203 37.32016602 58.86035156 36.68017578 C53.35892355 33.50943029 47.85576481 30.34170789 42.3515625 27.17578125 C41.24538574 26.53890381 40.13920898 25.90202637 38.99951172 25.24584961 C36.95228389 24.06719395 34.90450871 22.889488 32.85595703 21.71313477 C22.18184327 15.56606026 11.60711321 9.26783962 1 3 C1 128.4 1 253.8 1 383 C2.65 383.66 4.3 384.32 6 385 C7.2599617 385.69295468 8.50200329 386.41962432 9.72265625 387.1796875 C10.76075439 387.82091553 10.76075439 387.82091553 11.81982422 388.47509766 C12.92994873 389.16804932 12.92994873 389.16804932 14.0625 389.875 C15.69093847 390.88096596 17.31986151 391.88614785 18.94921875 392.890625 C19.78759277 393.40818359 20.6259668 393.92574219 21.48974609 394.45898438 C25.43253784 396.87941829 29.40338744 399.25225875 33.375 401.625 C39.16865939 405.09039322 44.95171198 408.57249719 50.71875 412.08203125 C51.59195641 412.61340698 51.59195641 412.61340698 52.48280334 413.15551758 C53.67711978 413.88239948 54.87141997 414.6093081 56.06570435 415.33624268 C56.66277191 415.69965759 57.25983948 416.06307251 57.875 416.4375 C58.47311493 416.80155945 59.07122986 417.1656189 59.68746948 417.54071045 C68.44143291 422.86648952 77.23992785 428.11104803 86.07617188 433.29931641 C95.8172538 439.03738838 105.41458115 445.00651896 115 451 C114.34 451.33 113.68 451.66 113 452 C111.22265625 451.25 111.22265625 451.25 109.0625 450 C107.85787109 449.30390625 107.85787109 449.30390625 106.62890625 448.59375 C102.93925702 446.35693442 99.31415165 444.02467551 95.6875 441.6875 C93.32637265 440.20493166 90.94926471 438.82960084 88.5 437.5 C84.08852824 435.10520105 79.90520633 432.40557741 75.6875 429.6875 C73.32637265 428.20493166 70.94926471 426.82960084 68.5 425.5 C64.08852824 423.10520105 59.90520633 420.40557741 55.6875 417.6875 C52.62306092 415.76331732 49.48356682 414.03378626 46.3046875 412.30859375 C43.6797905 410.81818613 41.15887995 409.20270274 38.625 407.5625 C34.94655615 405.18897897 31.2372724 402.99809785 27.375 400.9375 C23.12636557 398.66834297 19.16367418 396.16521006 15.1953125 393.44140625 C12.27580422 391.52450491 9.23479605 389.88928238 6.140625 388.2734375 C3.45243035 386.67425601 1.26279435 385.18339142 -1 383 C-1.62970585 380.0700869 -1.62970585 380.0700869 -1.63644314 376.58158779 C-1.64449993 375.9362892 -1.65255671 375.29099062 -1.66085765 374.62613752 C-1.68184492 372.45450176 -1.6671294 370.28456813 -1.6526947 368.11289978 C-1.66043538 366.54414958 -1.67036179 364.97540888 -1.68229109 363.40668494 C-1.70874021 359.08876394 -1.70396552 354.77134889 -1.69418919 350.45337856 C-1.68905282 345.79957013 -1.71262587 341.14589745 -1.73266602 336.49214172 C-1.76737531 327.37293221 -1.77546443 318.25388194 -1.77471816 309.13461392 C-1.77486444 298.52247315 -1.80144445 287.91044887 -1.82923479 277.29835052 C-1.87792299 258.36874515 -1.90284481 239.43918283 -1.91430664 220.50952148 C-1.9254614 202.12632611 -1.95272482 183.74325031 -1.99829102 165.36010742 C-2.0010952 164.22779621 -2.00389938 163.09548499 -2.00678854 161.92886131 C-2.00959126 160.79853895 -2.01239397 159.66821658 -2.01528162 158.50364202 C-2.02091892 156.22799076 -2.02654914 153.95233949 -2.0321722 151.67668819 C-2.03494651 150.55451178 -2.03772082 149.43233538 -2.0405792 148.27615362 C-2.08316259 130.77744859 -2.11081881 113.27871624 -2.13702447 95.77998019 C-2.14673311 89.4300128 -2.15870962 83.08005429 -2.17232548 76.73009413 C-2.1938803 66.65936875 -2.20907225 56.58868072 -2.21073853 46.51793068 C-2.2116241 41.91407451 -2.21567932 37.31028018 -2.2283268 32.70643997 C-2.23977015 28.49670018 -2.24199631 24.28706264 -2.23666639 20.07731158 C-2.23635287 18.54979374 -2.23945266 17.02227084 -2.24620544 15.4947679 C-2.25482923 13.4272422 -2.25124394 11.36009496 -2.24444485 9.29257107 C-2.24553169 8.14152872 -2.24661853 6.99048636 -2.2477383 5.80456394 C-2 3 -2 3 0 0 Z " fill="#001B0A" transform="translate(257,277)"/>
<path d="M0 0 C0.50403082 37.85180401 0.89144725 75.70310092 1.12343725 113.5575842 C1.15095137 118.03090797 1.1794266 122.50422514 1.20849609 126.97753906 C1.21426692 127.86806053 1.22003775 128.758582 1.22598346 129.67608897 C1.32160379 144.07831521 1.49499603 158.47860111 1.69736151 172.87967785 C1.90341425 187.6669665 2.0253574 202.45324223 2.06994689 217.24190748 C2.10007463 226.36189816 2.19503294 235.47640521 2.37416227 244.59470628 C2.49086051 250.85565617 2.5255197 257.11379097 2.4970303 263.37574829 C2.48298658 266.98620929 2.50376738 270.5871335 2.62252045 274.19587517 C3.27838902 295.15487313 3.27838902 295.15487313 -2.13398695 301.50289106 C-7.328348 305.91084156 -13.0569337 308.97076924 -19.24747348 311.75004077 C-25.51402367 314.59576531 -31.42404769 318.20079587 -37.3125 321.75 C-37.91513672 322.11287109 -38.51777344 322.47574219 -39.13867188 322.84960938 C-47.35134643 327.80241119 -55.54247009 332.79108365 -63.73828125 337.77172852 C-70.85388294 342.09517467 -77.98042201 346.39908593 -85.12890625 350.66796875 C-88.39922786 352.62944158 -91.65107552 354.62040358 -94.90234375 356.61328125 C-95.94865967 357.25370361 -96.99497559 357.89412598 -98.07299805 358.55395508 C-100.15808043 359.83115416 -102.24163077 361.11085842 -104.32348633 362.39331055 C-105.27376709 362.97508057 -106.22404785 363.55685059 -107.203125 364.15625 C-108.05551758 364.68025391 -108.90791016 365.20425781 -109.78613281 365.74414062 C-112 367 -112 367 -115 368 C-115.24837309 363.00158699 -115.42915259 358.00680265 -115.54931641 353.00366211 C-115.59942129 351.30478335 -115.66753346 349.60633199 -115.75439453 347.90893555 C-116.45044016 333.95117351 -116.45044016 333.95117351 -113.17333984 329.54272461 C-110.54501328 327.65766952 -107.94078092 326.34315667 -105 325 C-102.9580574 323.80933726 -100.92442931 322.60432483 -98.8984375 321.38671875 C-96.72613348 320.1498179 -94.55158217 318.91685695 -92.375 317.6875 C-83.89949191 312.85948042 -75.46936957 308.01031294 -67.32676315 302.6353035 C-64.29337628 300.70701177 -61.22706413 299.13293666 -57.96019363 297.63709641 C-48.55384579 293.33502118 -48.55384579 293.33502118 -41.85829067 285.83970737 C-40.0813878 279.73126163 -40.49043105 273.46714838 -40.72949219 267.17675781 C-40.73514174 265.08634995 -40.73195109 262.99590248 -40.72064209 260.90551758 C-40.71492643 255.25825812 -40.83205955 249.61957732 -40.97212124 243.97430515 C-41.09757247 238.06508574 -41.10892763 232.15564583 -41.13262939 226.24530029 C-41.19467381 215.06653266 -41.35861417 203.89169983 -41.55961919 192.71466136 C-41.78355478 179.98483249 -41.89322557 167.25481063 -41.99352789 154.52350092 C-42.20230682 128.34682307 -42.55384175 102.17363242 -43 76 C-45.8537406 77.57634995 -48.70592525 79.15549541 -51.55786133 80.73510742 C-52.75672344 81.39726887 -52.75672344 81.39726887 -53.97980499 82.07280731 C-61.00314843 85.96582817 -67.85522491 90.0925506 -74.6875 94.3125 C-84.41024501 100.27927303 -94.22334278 106.03583932 -104.18139648 111.60424805 C-110.02673235 114.8746372 -115.8036202 118.2303179 -121.52954102 121.70483398 C-126.23348964 124.55502879 -130.9835232 127.31831678 -135.75 130.0625 C-144.29711333 134.98672644 -152.7844306 140.00945788 -161.26422119 145.04833984 C-168.35960284 149.26358375 -175.47002255 153.44907106 -182.625 157.5625 C-194.18171967 164.2088041 -205.58478769 171.11452289 -217 178 C-232.72855133 169.06843525 -248.39554642 160.01843745 -263.87817383 150.66625977 C-270.42757227 146.72180585 -277.02779638 142.86372149 -283.625 139 C-284.24283356 138.63812592 -284.86066711 138.27625183 -285.4972229 137.90341187 C-289.99751237 135.26785384 -294.49866759 132.63377624 -299 130 C-304.1255713 127.00097512 -309.25077859 124.00133088 -314.375 121 C-314.99275299 120.63820648 -315.61050598 120.27641296 -316.24697876 119.90365601 C-322.78802606 116.07170731 -329.32357727 112.2322664 -335.8125 108.3125 C-343.16328093 103.87623923 -350.58312845 99.56045365 -358.00341797 95.24169922 C-364.81118415 91.27938759 -371.60845021 87.30016847 -378.38427734 83.28344727 C-383.21291854 80.43096516 -388.09187567 77.72673574 -393 75 C-393 145.29 -393 215.58 -393 288 C-391.35 288.66 -389.7 289.32 -388 290 C-385.76661463 291.27229811 -383.57328776 292.56657882 -381.38671875 293.9140625 C-380.77230423 294.28856537 -380.15788971 294.66306824 -379.52485657 295.04891968 C-377.57687121 296.23738901 -375.63216072 297.43110012 -373.6875 298.625 C-372.36154145 299.43524504 -371.03537171 300.24514457 -369.70898438 301.0546875 C-366.4701985 303.03246824 -363.23433774 305.01495414 -360 307 C-360.66 307.33 -361.32 307.66 -362 308 C-368.27829107 305.24184478 -374.03328656 301.39472791 -379.66015625 297.5078125 C-383.1998583 295.2268025 -386.94779922 293.36776242 -390.71484375 291.4921875 C-393.41800968 289.72704325 -393.92185855 289.02174033 -395 286 C-395.18621438 283.09867537 -395.26109024 280.2952177 -395.24050903 277.39471436 C-395.24221788 276.51741645 -395.24392673 275.64011855 -395.24568737 274.73623586 C-395.24898641 271.79119702 -395.23797169 268.8463851 -395.22705078 265.90136719 C-395.22648676 263.79242966 -395.22680305 261.68349174 -395.22793579 259.57455444 C-395.22851065 253.84353486 -395.21673479 248.11259865 -395.20278788 242.38159847 C-395.19030268 236.39447894 -395.18911176 230.40735759 -395.18673706 224.42022705 C-395.18051579 213.08014906 -395.1640962 201.74010953 -395.14403808 190.40004849 C-395.12169922 177.49089595 -395.11069072 164.58174158 -395.10064721 151.67257452 C-395.07973055 125.11502834 -395.04454199 98.55751632 -395 72 C-390.75799171 73.16873864 -387.14972932 74.24757943 -383.4375 76.625 C-379.32832331 79.19323543 -375.1606635 81.62546016 -370.9375 84 C-366.17314163 86.69414641 -361.58021647 89.55130418 -357.0625 92.640625 C-354.27638375 94.47692889 -351.38045659 96.06139267 -348.44921875 97.65234375 C-345.60252291 99.21870749 -342.8022909 100.85556313 -340 102.5 C-335.66105031 105.04256924 -331.29289569 107.51846857 -326.890625 109.94921875 C-323.61524668 111.7696253 -320.45887737 113.6831561 -317.375 115.8125 C-314.54176658 117.73060634 -311.58030366 119.32745427 -308.5625 120.9375 C-304.73438656 122.99123113 -301.2436635 125.17378698 -297.77709961 127.77880859 C-296.01905133 128.98690827 -294.28896027 129.896036 -292.36328125 130.80859375 C-287.70527793 133.09684787 -283.30438328 135.73869963 -278.875 138.4375 C-277.11627329 139.50064191 -275.35714324 140.56311681 -273.59765625 141.625 C-272.6864502 142.17542969 -271.77524414 142.72585938 -270.83642578 143.29296875 C-266.00912938 146.19815522 -261.16202586 149.06962062 -256.3125 151.9375 C-254.96937744 152.73401978 -254.96937744 152.73401978 -253.59912109 153.54663086 C-248.72744122 156.42617906 -243.82689259 159.23880972 -238.86865234 161.96679688 C-235.51792872 163.81945723 -232.29994047 165.79786621 -229.125 167.9375 C-228.09375 168.618125 -227.0625 169.29875 -226 170 C-225.44183594 170.40089844 -224.88367188 170.80179688 -224.30859375 171.21484375 C-221.19273295 173.28511368 -219.56514406 174.10186547 -215.8359375 173.4296875 C-211.18400664 171.91031427 -207.19050184 169.32963803 -203.0625 166.75 C-201.30040785 165.67035782 -199.53734171 164.59230412 -197.7734375 163.515625 C-196.84370117 162.94650391 -195.91396484 162.37738281 -194.95605469 161.79101562 C-189.73777138 158.62936 -184.46194138 155.56673348 -179.1875 152.5 C-177.67651733 151.61973145 -177.67651733 151.61973145 -176.13500977 150.72167969 C-172.15238001 148.40380725 -168.16806578 146.09032383 -164.16015625 143.81640625 C-161.14694505 142.08446162 -158.19610524 140.28080639 -155.25 138.4375 C-147.31117324 133.52952867 -139.2241164 128.88541916 -131.13574219 124.22949219 C-123.07995306 119.59198029 -115.08823468 114.85669985 -107.125 110.0625 C-100.36095525 105.99031365 -93.55836558 102.0141692 -86.6875 98.125 C-81.20699834 94.99328477 -75.82085242 91.7010393 -70.41577148 88.44165039 C-64.27480893 84.74576072 -58.08768554 81.14674821 -51.84765625 77.62109375 C-49.98383027 76.56006799 -48.1363055 75.46974924 -46.30859375 74.34765625 C-44 73 -44 73 -41 72 C-39.37666998 75.24666004 -39.85203524 78.81481508 -39.85282898 82.3825531 C-39.84915229 83.26010901 -39.8454756 84.13766492 -39.8416875 85.04181343 C-39.83062211 87.99980527 -39.82680204 90.95776202 -39.82299805 93.91577148 C-39.8167357 96.02939975 -39.81008911 98.1430269 -39.80308533 100.25665283 C-39.78565768 106.01068072 -39.77511939 111.76470029 -39.7668798 117.51874804 C-39.76173485 121.10985698 -39.75565898 124.7009633 -39.74936867 128.29207039 C-39.73031423 139.51700359 -39.71608195 150.74193018 -39.7077567 161.96687645 C-39.69797333 174.94496966 -39.67162615 187.92289281 -39.63125581 200.90092605 C-39.60115487 210.9196155 -39.58629368 220.93825602 -39.58297569 230.95698982 C-39.58061888 236.94700884 -39.5715764 242.93684623 -39.54651451 248.92681694 C-39.52333314 254.55828484 -39.51896035 260.18945023 -39.52927589 265.82095337 C-39.52977375 267.89184128 -39.52338047 269.96274359 -39.50971985 272.0335865 C-39.49215696 274.85291396 -39.49902949 277.67113719 -39.51225281 280.49046326 C-39.49579894 281.73013994 -39.49579894 281.73013994 -39.47901267 282.99486059 C-39.54201746 288.52864452 -39.54201746 288.52864452 -41.90279865 290.95835972 C-42.5948751 291.30210101 -43.28695154 291.6458423 -44 292 C-44.67417969 292.38800781 -45.34835937 292.77601563 -46.04296875 293.17578125 C-47.10451172 293.73845703 -47.10451172 293.73845703 -48.1875 294.3125 C-51.34090347 296.03300515 -54.34474216 297.85152875 -57.3125 299.875 C-61.55123427 302.74921023 -65.9195684 305.32214212 -70.35546875 307.87890625 C-74.97699427 310.55355306 -79.54858035 313.31164666 -84.125 316.0625 C-84.94782471 316.5570166 -85.77064941 317.0515332 -86.6184082 317.56103516 C-89.97937009 319.5816951 -93.34008528 321.60276225 -96.69995117 323.62524414 C-98.01829956 324.41789673 -98.01829956 324.41789673 -99.36328125 325.2265625 C-100.15516846 325.70303223 -100.94705566 326.17950195 -101.76293945 326.67041016 C-103.84915262 327.91034434 -105.9499628 329.11811943 -108.0625 330.3125 C-110.80513357 331.7181639 -110.80513357 331.7181639 -112 333 C-113.24775601 339.29113344 -113.11408427 345.54501814 -113.0625 351.9375 C-113.05573242 353.53561523 -113.05573242 353.53561523 -113.04882812 355.16601562 C-113.03711787 357.77740291 -113.02071724 360.38867124 -113 363 C-108.6811473 361.21380783 -104.64613421 359.33720913 -100.625 356.9375 C-99.08005859 356.02097656 -99.08005859 356.02097656 -97.50390625 355.0859375 C-96.66690186 354.58658691 -96.66690186 354.58658691 -95.81298828 354.07714844 C-93.84793138 352.90965166 -91.87591347 351.75460788 -89.90234375 350.6015625 C-82.29303055 346.1527221 -74.73474066 341.63923455 -67.2421875 336.99609375 C-63.67825604 334.80191426 -60.09227288 332.64731586 -56.5 330.5 C-49.63069956 326.39106262 -42.80875206 322.20859215 -36 318 C-23.66078029 310.38337547 -23.66078029 310.38337547 -17.875 306.9375 C-17.13764297 306.4829892 -16.40028595 306.0284784 -15.64058477 305.56019455 C-13 304 -13 304 -10.16418046 302.60253614 C-4.43105548 299.63570133 -4.43105548 299.63570133 -0.99144232 294.43537152 C-0.60952696 291.25511386 -0.58556452 288.23695054 -0.67720032 285.0348053 C-0.66780164 283.83234348 -0.65840297 282.62988167 -0.64871949 281.39098161 C-0.63375519 278.06346054 -0.66798918 274.74309738 -0.72327816 271.41644466 C-0.77087719 267.82621849 -0.7546998 264.23620498 -0.74635315 260.64575195 C-0.7405909 254.42913206 -0.77503848 248.21378412 -0.83696938 241.99748421 C-0.92644985 233.01004068 -0.95502312 224.02321085 -0.96883728 215.03537016 C-0.99289977 200.45283772 -1.06606879 185.87098294 -1.17016602 171.28881836 C-1.27116839 157.12544135 -1.34901431 142.96224853 -1.39575195 128.79858398 C-1.39864191 127.92523334 -1.40153187 127.0518827 -1.4045094 126.15206689 C-1.41886504 121.77062962 -1.43276577 117.38919104 -1.44644034 113.00775158 C-1.56043537 76.67135595 -1.75414484 40.33573078 -2 4 C-3.7675603 4.95925733 -5.5345388 5.91958675 -7.30126953 6.88037109 C-8.28531769 7.41503998 -9.26936584 7.94970886 -10.28323364 8.50057983 C-13.21132439 10.1166328 -16.05156836 11.8327347 -18.875 13.625 C-25.6399467 17.83989476 -32.55026771 21.78003449 -39.48974609 25.69970703 C-44.14294967 28.33526611 -48.71896238 31.04810134 -53.23754883 33.90795898 C-55.58213687 35.36070068 -57.99609063 36.65548138 -60.4375 37.9375 C-63.9097083 39.8023811 -67.19999551 41.75368801 -70.4375 44 C-74.77671425 46.98078403 -79.36142241 49.20453376 -84.08984375 51.5 C-87.50818243 53.26193564 -90.58929621 55.32624353 -93.74609375 57.51171875 C-97.01464118 59.66997971 -100.45789615 61.45602515 -103.91015625 63.30078125 C-110.04994733 66.67727824 -116.00998723 70.36640852 -122 74 C-123.79081077 75.08474759 -125.58235801 76.16828135 -127.375 77.25 C-128.06335938 77.66765625 -128.75171875 78.0853125 -129.4609375 78.515625 C-131.66884252 79.80640024 -133.89332947 81.05047438 -136.1328125 82.28515625 C-141.31460612 85.15374433 -146.40831273 88.16260098 -151.5 91.1875 C-153.44388726 92.34005149 -155.38789906 93.49239296 -157.33203125 94.64453125 C-158.28803223 95.21123535 -159.2440332 95.77793945 -160.22900391 96.36181641 C-162.75677214 97.85620626 -165.28886751 99.34274072 -167.82421875 100.82421875 C-173.88955305 104.36948216 -179.92685111 107.91007522 -185.8125 111.75 C-190.39731665 114.72318413 -195.1553133 117.08227463 -200.07421875 119.44921875 C-203.88868163 121.47103686 -207.24679755 123.93436304 -210.6484375 126.58203125 C-213.6457936 128.38940711 -215.47796772 128.96559675 -219 129 C-221.81692661 127.89274882 -224.27244188 126.32045766 -226.8125 124.6875 C-228.32263719 123.7573586 -229.83306225 122.82768445 -231.34375 121.8984375 C-232.11332031 121.41729492 -232.88289062 120.93615234 -233.67578125 120.44042969 C-237.34880909 118.1640784 -241.08115772 115.99142647 -244.8125 113.8125 C-246.11086562 113.0484974 -247.40904334 112.28417539 -248.70703125 111.51953125 C-256.13514731 107.15467556 -263.58136512 102.82083642 -271.03515625 98.5 C-273.04427083 97.33333333 -275.05338542 96.16666667 -277.0625 95 C-278.56006836 94.13375 -278.56006836 94.13375 -280.08789062 93.25 C-286.83325141 89.32797322 -293.44873757 85.23815232 -300 81 C-299.34 80.67 -298.68 80.34 -298 80 C-296.09008789 80.82592773 -296.09008789 80.82592773 -293.72265625 82.18359375 C-292.83070557 82.69075928 -291.93875488 83.1979248 -291.01977539 83.72045898 C-290.04387451 84.28708252 -289.06797363 84.85370605 -288.0625 85.4375 C-287.04341553 86.02152588 -286.02433105 86.60555176 -284.97436523 87.20727539 C-274.85100554 93.03202062 -264.81246393 99.00154093 -254.77734375 104.9765625 C-247.07918508 109.5561281 -239.3427242 114.06852144 -231.59985352 118.57202148 C-230.67229248 119.11157471 -229.74473145 119.65112793 -228.7890625 120.20703125 C-227.98162598 120.6760083 -227.17418945 121.14498535 -226.34228516 121.62817383 C-224 123 -224 123 -221.51318359 124.73706055 C-219.10317933 126.20476598 -219.10317933 126.20476598 -216.55078125 125.88867188 C-213.50837805 124.82872283 -210.95665938 123.43243682 -208.1875 121.78125 C-207.62954742 121.45145142 -207.07159485 121.12165283 -206.49673462 120.78186035 C-204.66047519 119.69451552 -202.83034293 118.59726964 -201 117.5 C-199.71187145 116.73492623 -198.42328954 115.97061529 -197.13427734 115.20703125 C-194.44554079 113.61355853 -191.75880555 112.01678294 -189.07324219 110.41796875 C-183.22956028 106.94351685 -177.35715051 103.51825259 -171.4871521 100.08853149 C-163.6976001 95.53510502 -155.91071322 90.9778648 -148.1875 86.3125 C-139.79417999 81.24705775 -131.31138113 76.33544842 -122.83984375 71.40234375 C-113.1565251 65.76346341 -103.49896348 60.08195465 -93.8671875 54.35546875 C-81.55399375 47.03780068 -69.20789893 39.78894438 -56.78710938 32.65454102 C-48.84092407 28.08235983 -40.94274401 23.43445231 -33.0625 18.75 C-25.01753002 13.9695716 -16.96698312 9.20053028 -8.875 4.5 C-8.08101807 4.0369043 -7.28703613 3.57380859 -6.46899414 3.09667969 C-1.11979979 0 -1.11979979 0 0 0 Z " fill="#000802" transform="translate(728,341)"/>
<path d="M0 0 C0.66 0.33 1.32 0.66 2 1 C1.94116162 49.08691393 1.86664758 97.17378126 1.77101372 145.26063685 C1.75974511 150.9335233 1.74860673 156.60641001 1.73754883 162.27929688 C1.73534514 163.40870002 1.73314146 164.53810316 1.730871 165.70173064 C1.6954671 184.00575759 1.67062044 202.30978451 1.64965298 220.61383304 C1.62791554 239.38564583 1.59488476 258.15741406 1.55129844 276.92918897 C1.52474623 288.51893845 1.50707717 300.10863237 1.50065396 311.69841078 C1.49541098 319.6383682 1.47923083 327.57825562 1.45433434 335.51817557 C1.44028187 340.10390868 1.43116245 344.68951637 1.43499184 349.27527237 C1.43838851 353.46988139 1.42811605 357.66422201 1.40676448 361.858776 C1.40147254 363.37968928 1.40128672 364.90063026 1.40660437 366.42154345 C1.41307965 368.4828335 1.40127412 370.54322746 1.38476086 372.6044426 C1.38286225 373.75119799 1.38096365 374.89795339 1.37900752 376.07945895 C0.95570136 379.34135471 0.29559266 380.68154487 -2 383 C-3.65575773 383.74981585 -5.31697484 384.49140211 -7.01074219 385.15087891 C-10.77192149 386.75635038 -14.16458592 389.02436895 -17.625 391.1875 C-18.41261719 391.67436279 -19.20023438 392.16122559 -20.01171875 392.6628418 C-21.60049964 393.64533486 -23.18808695 394.62976094 -24.77441406 395.61621094 C-27.84372882 397.52460015 -30.92166167 399.41870041 -34 401.3125 C-35.03382813 401.94929688 -36.06765625 402.58609375 -37.1328125 403.2421875 C-41.40291636 405.86009859 -45.70019158 408.43128328 -50 411 C-52.39607524 412.43709872 -54.7919094 413.87459402 -57.1875 415.3125 C-58.47654805 416.08596158 -59.76561072 416.85939879 -61.0546875 417.6328125 C-61.70405273 418.02243164 -62.35341797 418.41205078 -63.02246094 418.81347656 C-69.64599609 422.78759766 -69.64599609 422.78759766 -76.26953125 426.76171875 C-76.85629639 427.11379395 -77.44306152 427.46586914 -78.04760742 427.82861328 C-79.47740166 428.68645406 -80.90726114 429.54418609 -82.3371582 430.40185547 C-86.47742648 432.88545363 -90.61683979 435.37044653 -94.75390625 437.859375 C-103.56465074 443.15742193 -112.3922844 448.42364077 -121.2590332 453.62744141 C-132.04446417 459.95788054 -142.72052059 466.45992609 -153.33203125 473.078125 C-159.2510383 476.75731799 -165.20804659 480.22133151 -171.3671875 483.48046875 C-175.01103425 485.58351977 -178.30597711 488.08550326 -181.61328125 490.6796875 C-184.59407251 492.32863585 -186.64333313 492.31246828 -190 492 C-191 491 -191 491 -191.12419033 489.048069 C-191.12343549 487.75393396 -191.12343549 487.75393396 -191.12266541 486.43365479 C-191.12429688 485.44663574 -191.12592834 484.4596167 -191.12760925 483.44268799 C-191.12408951 482.35075134 -191.12056976 481.2588147 -191.11694336 480.13378906 C-191.11697357 478.99075317 -191.11700378 477.84771729 -191.11703491 476.67004395 C-191.11463259 472.86852608 -191.10347095 469.06711862 -191.08984375 465.265625 C-191.08315265 463.32359821 -191.08315265 463.32359821 -191.07632637 461.34233856 C-191.05591094 455.90188458 -191.03308808 450.46146432 -191.00185299 445.02106094 C-190.95731171 437.22113994 -190.93270063 429.42173139 -190.93560117 421.62167954 C-190.93604068 415.47852511 -190.90387129 409.33591639 -190.86038399 403.1929245 C-190.84671312 400.57905116 -190.84326507 397.96510396 -190.85014153 395.35120392 C-190.85756437 391.69462064 -190.82772039 388.04013199 -190.78881836 384.38378906 C-190.79946823 383.29994934 -190.8101181 382.21610962 -190.8210907 381.09942627 C-190.69110313 373.93290365 -190.69110313 373.93290365 -188.69606209 371.23984528 C-185.85083844 368.8135479 -182.50833634 367.01315447 -179.1875 365.3125 C-174.48674789 362.82349586 -169.88767444 360.20983195 -165.3125 357.5 C-159.1895918 353.87652457 -153.05164209 350.28064691 -146.89990234 346.70629883 C-135.49821252 340.08619729 -135.49821252 340.08619729 -124.1875 333.3125 C-123.23230469 332.73113281 -122.27710938 332.14976562 -121.29296875 331.55078125 C-119.16003674 330.10823609 -117.60469658 329.00030057 -116 327 C-115.54130609 324.61293103 -115.54130609 324.61293103 -115.60127258 321.89375305 C-115.58873444 320.8378598 -115.57619629 319.78196655 -115.5632782 318.69407654 C-115.56471329 317.53602005 -115.56614838 316.37796356 -115.56762695 315.18481445 C-115.5574353 313.96518005 -115.54724365 312.74554565 -115.53674316 311.48895264 C-115.51170344 308.14406781 -115.49988306 304.79962232 -115.49388909 301.45468163 C-115.48451647 297.95923623 -115.45831405 294.46391838 -115.43388367 290.96855164 C-115.3901842 284.3494325 -115.3616585 277.73033808 -115.33856028 271.1111185 C-115.31152701 263.57544799 -115.26761441 256.03990558 -115.22227156 248.50432646 C-115.12937598 233.00295011 -115.05771784 217.50154965 -115 202 C-116.28813247 202.47391348 -117.57542277 202.95011648 -118.86235046 203.42729187 C-119.57929927 203.69223292 -120.29624807 203.95717398 -121.0349226 204.23014355 C-123.1454141 205.05696874 -124.99784319 206.02961008 -126.89453125 207.26953125 C-127.53447021 207.68041992 -128.17440918 208.09130859 -128.83374023 208.51464844 C-129.48673096 208.94293945 -130.13972168 209.37123047 -130.8125 209.8125 C-136.29038841 213.32740946 -141.8079881 216.59210382 -147.5625 219.640625 C-149.95846917 220.97683858 -152.18344985 222.43826525 -154.4375 224 C-158.77671425 226.98078403 -163.36142241 229.20453376 -168.08984375 231.5 C-171.50818243 233.26193564 -174.58929621 235.32624353 -177.74609375 237.51171875 C-181.01464118 239.66997971 -184.45789615 241.45602515 -187.91015625 243.30078125 C-194.04994733 246.67727824 -200.00998723 250.36640852 -206 254 C-211.57869027 257.37917937 -217.1691708 260.6983653 -222.89453125 263.82421875 C-225.29578563 265.16517899 -227.64357787 266.58150679 -230 268 C-231.36631129 268.80487469 -232.73358776 269.60811206 -234.1015625 270.41015625 C-235.20757813 271.05887695 -235.20757813 271.05887695 -236.3359375 271.72070312 C-237.86949802 272.61964176 -239.40335522 273.51807446 -240.9375 274.41601562 C-241.67226563 274.84720703 -242.40703125 275.27839844 -243.1640625 275.72265625 C-243.82873535 276.11203369 -244.4934082 276.50141113 -245.17822266 276.90258789 C-246.81457387 277.888302 -248.41052746 278.94035164 -250 280 C-256.65832511 280.93216552 -260.58770819 278.43870132 -266 275 C-266.89203125 274.43410156 -267.7840625 273.86820313 -268.703125 273.28515625 C-270.56486279 272.0968683 -272.42296456 270.902864 -274.27734375 269.703125 C-277.51088419 267.68042252 -280.83101823 265.88244272 -284.22265625 264.140625 C-286 263 -286 263 -288 260 C-283.6024102 261.31225647 -279.98627612 263.03312005 -276.0859375 265.44140625 C-274.99539063 266.10720703 -273.90484375 266.77300781 -272.78125 267.45898438 C-271.64545045 268.15953586 -270.5100372 268.86071402 -269.375 269.5625 C-267.13642734 270.94494242 -264.89382295 272.31996525 -262.6484375 273.69140625 C-261.66020996 274.30185791 -260.67198242 274.91230957 -259.65380859 275.54125977 C-257.32000022 276.82410291 -255.63271582 277.71981345 -253 278 C-250.33901369 276.79717266 -247.94453551 275.53590858 -245.4375 274.0625 C-244.66229004 273.61938477 -243.88708008 273.17626953 -243.08837891 272.71972656 C-240.38199121 271.16348814 -237.68991669 269.58453404 -235 268 C-233.46641846 267.09773682 -233.46641846 267.09773682 -231.90185547 266.17724609 C-226.80675509 263.17377821 -221.71874078 260.15858886 -216.63717651 257.1322937 C-209.67635756 252.98691783 -202.69064773 248.8859871 -195.6875 244.8125 C-187.32149024 239.94399738 -178.97602151 235.04264218 -170.64819336 230.10913086 C-165.37701918 226.98872735 -160.09748077 223.88321866 -154.80859375 220.79296875 C-152.92015243 219.68919154 -151.03172536 218.58538994 -149.14331055 217.48156738 C-147.88722313 216.74743247 -146.63103917 216.01346273 -145.37475586 215.27966309 C-136.87967172 210.31517031 -128.430426 205.28517576 -120.10058594 200.04638672 C-115.20954296 197 -115.20954296 197 -113 197 C-112.62555854 214.03732633 -112.34377491 231.07336219 -112.17100525 248.11386681 C-112.08863606 256.02702053 -111.97644506 263.93761251 -111.79296875 271.84912109 C-111.63304505 278.74835338 -111.53017078 285.64573071 -111.49458408 292.54676497 C-111.47378823 296.1991268 -111.42528252 299.84618474 -111.30831909 303.49683762 C-110.62570793 325.65011503 -110.62570793 325.65011503 -114.53607368 331.16724396 C-118.21431625 334.57734754 -122.28928177 336.52481089 -126.97096252 338.21067429 C-130.19496036 339.46485733 -132.95013532 341.2789313 -135.87109375 343.125 C-138.05869602 344.41869766 -140.24750614 345.71035499 -142.4375 347 C-143.61094509 347.69318124 -144.7842833 348.38654344 -145.95751953 349.08007812 C-150.98633419 352.05127119 -156.02020222 355.01382648 -161.05859375 357.96875 C-161.79400391 358.40010254 -162.52941406 358.83145508 -163.28710938 359.27587891 C-164.65130212 360.07569912 -166.01586959 360.87488063 -167.38085938 361.67333984 C-172.84040142 364.87743278 -178.21071311 368.21479453 -183.55859375 371.6015625 C-186 373 -186 373 -188 373 C-188 411.61 -188 450.22 -188 490 C-174.41866021 482.36300653 -174.41866021 482.36300653 -161.01953125 474.43359375 C-156.49868879 471.69488704 -151.9691226 468.97082626 -147.4375 466.25 C-146.59501709 465.74404297 -145.75253418 465.23808594 -144.88452148 464.71679688 C-138.70964241 461.01337961 -132.51514493 457.34418334 -126.3125 453.6875 C-115.24544921 447.16143159 -104.22841169 440.55346881 -93.21728516 433.93359375 C-87.77178941 430.66084171 -82.32322975 427.39319788 -76.875 424.125 C-74.77863173 422.867211 -72.68227704 421.60939938 -70.5859375 420.3515625 C-60.9765625 414.5859375 -60.9765625 414.5859375 -59.20361328 413.5222168 C-58.06911571 412.84148574 -56.93467547 412.16065912 -55.80029297 411.47973633 C-51.98286524 409.18854213 -48.16366077 406.90033361 -44.34375 404.61328125 C-33.54536542 398.1453933 -22.75809549 391.65972903 -12 385.125 C-11.00871094 384.52405518 -10.01742188 383.92311035 -8.99609375 383.30395508 C-8.08988281 382.75247803 -7.18367188 382.20100098 -6.25 381.6328125 C-5.45078125 381.14699707 -4.6515625 380.66118164 -3.828125 380.16064453 C-2.05621342 379.12886681 -2.05621342 379.12886681 -1 378 C-0.89713424 375.99329844 -0.86598757 373.98291704 -0.8613348 371.97358608 C-0.85586036 370.65487151 -0.85038591 369.33615693 -0.84474558 367.97748131 C-0.84366916 366.49478883 -0.84268451 365.01209628 -0.84178162 363.52940369 C-0.83722012 361.96936479 -0.83222071 360.40932712 -0.82681805 358.84929091 C-0.81318056 354.54175805 -0.80580244 350.23423312 -0.79939139 345.92668426 C-0.79141197 341.28929386 -0.7777058 336.6519201 -0.76467896 332.01454163 C-0.74288119 323.9731034 -0.72474883 315.93166351 -0.70907402 307.89021111 C-0.68640536 296.26347981 -0.65825843 284.63676692 -0.62875474 273.0100512 C-0.5810419 254.14855461 -0.53778776 235.28705052 -0.49731445 216.42553711 C-0.45797828 198.09838273 -0.41655659 179.77123502 -0.37231445 161.4440918 C-0.36822804 159.75085939 -0.36822804 159.75085939 -0.36405908 158.02342027 C-0.35037992 152.36071188 -0.33665958 146.6980036 -0.32291877 141.03529537 C-0.20889602 94.02354416 -0.10209954 47.01177851 0 0 Z " fill="#000602" transform="translate(764,281)"/>
<path d="M0 0 C1.41804932 0.81111992 1.41804932 0.81111992 2.86474609 1.6386261 C4.12597115 2.35976085 5.38720192 3.08088561 6.6484375 3.80200195 C7.26904053 4.15702034 7.88964355 4.51203873 8.52905273 4.87781525 C13.105817 7.49422261 17.69650024 10.08505146 22.29321289 12.66625977 C31.26862088 17.71052487 40.19558939 22.82967927 49.0625 28.0625 C49.97193359 28.59834717 50.88136719 29.13419434 51.81835938 29.6862793 C56.29919295 32.34244788 60.70180839 35.05690328 65 38 C63.515 38.495 63.515 38.495 62 39 C59.96166576 37.7260411 57.96147874 36.38938077 56 35 C55.01 34.67 54.02 34.34 53 34 C53 33.34 53 32.68 53 32 C52.17757812 31.76667969 51.35515625 31.53335937 50.5078125 31.29296875 C46.2975812 29.74109062 42.70024965 27.63269093 38.875 25.3125 C37.3569113 24.40471297 35.83868152 23.49716183 34.3203125 22.58984375 C33.58200195 22.14624512 32.84369141 21.70264648 32.08300781 21.24560547 C29.32134316 19.59417403 26.53665323 17.9838278 23.75 16.375 C20.61936664 14.558192 17.51572547 12.70929581 14.4453125 10.79296875 C13.55247559 10.23633545 13.55247559 10.23633545 12.64160156 9.66845703 C10.96392951 8.61817312 9.29043623 7.5612229 7.6171875 6.50390625 C5.21406969 4.83392401 5.21406969 4.83392401 3 5 C3 101.69 3 198.38 3 298 C6.63 299.98 10.26 301.96 14 304 C16.9751404 305.7707954 19.93234883 307.55277527 22.875 309.375 C23.6481958 309.85050293 24.4213916 310.32600586 25.21801758 310.81591797 C27.48037419 312.20788497 29.74052355 313.60336402 32 315 C40.59407489 320.30481542 49.21924398 325.55072018 57.88671875 330.734375 C60.13449581 332.08054832 62.37996092 333.43051575 64.625 334.78125 C73.69240462 340.23511656 82.77397182 345.66491065 91.875 351.0625 C92.79611572 351.61067383 93.71723145 352.15884766 94.66625977 352.72363281 C99.04397303 355.3145326 103.40758315 357.80988702 108 360 C108 360.66 108 361.32 108 362 C109.65 362.33 111.3 362.66 113 363 C113.19956481 359.52141784 113.38240361 356.0421401 113.5625 352.5625 C113.61857422 351.58861328 113.67464844 350.61472656 113.73242188 349.61132812 C114.0343548 343.59279841 113.83345928 337.97003796 113 332 C112.01 331.67 111.02 331.34 110 331 C110 330.34 110 329.68 110 329 C109.11957031 328.73832031 108.23914063 328.47664063 107.33203125 328.20703125 C104.05609715 327.02032124 101.57498587 325.61676834 98.6875 323.6875 C95.30470817 321.47197734 91.93401303 319.35724784 88.375 317.4375 C83.71950952 314.91191746 79.3607769 311.99996709 75 309 C75.66 308.67 76.32 308.34 77 308 C79.51513672 309.24414063 79.51513672 309.24414063 82.6796875 311.15625 C83.53169235 311.66617493 83.53169235 311.66617493 84.40090942 312.18640137 C86.23023627 313.28344127 88.05267007 314.39138385 89.875 315.5 C91.65575874 316.57310829 93.43781564 317.64395055 95.22180176 318.71168518 C96.40612625 319.42718564 97.58447009 320.15267633 98.75671387 320.88780212 C101.65993745 322.69293731 104.34217297 324.13829254 107.53320312 325.42797852 C111.09633975 326.95958995 113.38108344 328.12395554 116 331 C117.9276413 337.06236133 117.12303088 343.68805969 116.75 349.9375 C116.68975628 351.68796865 116.63501208 353.43863575 116.5859375 355.18945312 C116.45415652 359.46455718 116.2474939 363.73009558 116 368 C110.19062381 365.16106189 104.52334318 362.23759087 99 358.875 C98.36376709 358.48940918 97.72753418 358.10381836 97.07202148 357.70654297 C93.76070918 355.69654789 90.46017759 353.66908617 87.16015625 351.640625 C85.79443328 350.80181879 84.4285408 349.96328851 83.0625 349.125 C82.33788574 348.68027344 81.61327148 348.23554687 80.86669922 347.77734375 C73.16383706 343.06836437 65.3933121 338.47477918 57.625 333.875 C46.98736906 327.57534668 36.37673248 321.23456674 25.8125 314.8125 C24.7105127 314.1426709 23.60852539 313.4728418 22.47314453 312.78271484 C20.41853167 311.53165885 18.3788807 310.25549031 16.35951519 308.94830322 C13.09743956 306.90365664 13.09743956 306.90365664 9.59587574 305.87265015 C5.45049554 304.2367878 2.48267498 302.78713105 0 299 C-2.43534864 290.61448495 -1.67555035 281.44278122 -1.50885308 272.7931211 C-1.45255196 269.12997715 -1.47172157 265.46712024 -1.48158264 261.80366516 C-1.48838976 255.4619093 -1.44771118 249.12189606 -1.37449074 242.78057861 C-1.26869988 233.61249011 -1.23496878 224.44524164 -1.21864685 215.27660894 C-1.19021554 200.4005627 -1.10376066 185.52544473 -0.98071289 170.64990234 C-0.86132994 156.20235835 -0.76933859 141.75506676 -0.71411133 127.30712891 C-0.71069592 126.41611902 -0.70728052 125.52510913 -0.70376161 124.60709894 C-0.68679575 120.13702829 -0.67036764 115.66695587 -0.65420687 111.19688225 C-0.51950483 74.13059948 -0.29059304 37.0653721 0 0 Z " fill="#000501" transform="translate(293,341)"/>
<path d="M0 0 C1.32 0 2.64 0 4 0 C3.67 125.73 3.34 251.46 3 381 C2.67 381 2.34 381 2 381 C1.67 256.26 1.34 131.52 1 3 C-3.95 5.97 -3.95 5.97 -9 9 C-10.77900543 9.99498461 -12.56486171 10.97805129 -14.36328125 11.9375 C-20.36912597 15.18219422 -26.28059187 18.57919014 -32.1875 22 C-33.31462402 22.65154053 -34.44174805 23.30308105 -35.60302734 23.97436523 C-47.08801019 30.616403 -58.54576024 37.30512917 -70 44 C-73.95785474 46.31332038 -77.91616536 48.62585692 -81.875 50.9375 C-82.86290527 51.51467773 -83.85081055 52.09185547 -84.86865234 52.68652344 C-90.00317709 55.68256396 -95.14625439 58.6624802 -100.3046875 61.6171875 C-112.29368505 68.48798428 -124.17486381 75.4981911 -135.96047974 82.7098999 C-145.79669182 88.72340422 -155.76651648 94.46530532 -165.828125 100.09375 C-172.50597799 103.83139079 -179.08567673 107.72893594 -185.67089844 111.62646484 C-190.29146443 114.35133951 -194.92806537 117.04880575 -199.5625 119.75 C-200.57151367 120.3385376 -201.58052734 120.9270752 -202.62011719 121.53344727 C-207.88223702 124.60218587 -213.14666857 127.66688531 -218.4140625 130.7265625 C-219.45836426 131.3340332 -220.50266602 131.94150391 -221.57861328 132.56738281 C-223.62787304 133.75889524 -225.67830337 134.94839704 -227.72998047 136.13574219 C-231.94873942 138.5868883 -236.13915079 141.04882557 -240.21875 143.7265625 C-240.81985596 144.1179541 -241.42096191 144.5093457 -242.0402832 144.91259766 C-243.54206171 145.9039896 -245.02783884 146.91951323 -246.51171875 147.9375 C-249 149 -249 149 -251.3605957 148.23266602 C-253.90322516 147.0451962 -256.30094603 145.76322044 -258.71875 144.33984375 C-259.6372876 143.80149902 -260.5558252 143.2631543 -261.50219727 142.70849609 C-262.49147217 142.12406738 -263.48074707 141.53963867 -264.5 140.9375 C-265.53503662 140.32986816 -266.57007324 139.72223633 -267.63647461 139.09619141 C-269.88593448 137.77533122 -272.13465416 136.4532905 -274.38232422 135.12939453 C-280.13206341 131.74352663 -285.89018057 128.37193356 -291.64697266 124.99807739 C-293.52808528 123.89517742 -295.40865336 122.79135473 -297.2890625 121.68725586 C-302.84227083 118.42766944 -308.39803755 115.17526799 -314 112 C-313.67 111.01 -313.34 110.02 -313 109 C-311.78376953 109.76183594 -311.78376953 109.76183594 -310.54296875 110.5390625 C-304.32319859 114.40560181 -298.07975495 118.10741353 -291.62109375 121.56640625 C-288.15672859 123.46122296 -284.79243715 125.50532831 -281.41796875 127.5546875 C-278.30526252 129.41527119 -275.13691567 131.16448856 -271.9609375 132.9140625 C-268.5802467 134.78623788 -265.32963802 136.77785264 -262.125 138.9375 C-261.09375 139.618125 -260.0625 140.29875 -259 141 C-258.43023437 141.38929688 -257.86046875 141.77859375 -257.2734375 142.1796875 C-254.50780937 143.94627816 -252.42465565 144.98153671 -249.125 145.125 C-245.46169721 143.806211 -242.7230402 141.9106967 -239.5546875 139.67578125 C-235.93894295 137.30398551 -232.10088689 135.51374722 -228.1875 133.6875 C-225.60208899 132.31875299 -223.31191305 130.89448771 -220.90625 129.25 C-214.29116286 124.76237807 -207.24050451 121.05167793 -200.23828125 117.2109375 C-194.70534311 114.15131032 -189.36745874 110.98336029 -184.14892578 107.41552734 C-180.45779032 104.984125 -176.57420242 102.91138479 -172.6875 100.8125 C-171.12736076 99.96769165 -169.56871226 99.12012329 -168.01171875 98.26953125 C-167.33584717 97.90448486 -166.65997559 97.53943848 -165.96362305 97.16333008 C-163.95336947 96.02250289 -163.95336947 96.02250289 -162.05566406 94.52661133 C-159.82503432 92.87006409 -157.55298091 91.60419657 -155.09765625 90.3046875 C-150.78849607 87.98784227 -146.53596505 85.5958903 -142.30859375 83.1328125 C-140.61573242 82.14667969 -140.61573242 82.14667969 -138.88867188 81.140625 C-137.14341801 80.12132563 -135.39820848 79.10194496 -133.6550293 78.07910156 C-131.93762511 77.07233924 -130.21691249 76.07122727 -128.49609375 75.0703125 C-127.48732178 74.48008301 -126.4785498 73.88985352 -125.43920898 73.28173828 C-123 72 -123 72 -121 72 C-121 71.34 -121 70.68 -121 70 C-120.21625 69.62875 -119.4325 69.2575 -118.625 68.875 C-114.85819959 66.99601057 -111.3054226 64.79130429 -107.7109375 62.60546875 C-104.98904098 60.99350986 -102.22820425 59.48915731 -99.4375 58 C-96.00793475 56.15552793 -92.76226842 54.21789003 -89.5625 52 C-85.22328575 49.01921597 -80.63857759 46.79546624 -75.91015625 44.5 C-72.54171325 42.7637824 -69.50121542 40.74099951 -66.39672852 38.57836914 C-63.97854826 36.98587292 -61.5232046 35.60810334 -58.96875 34.24609375 C-52.92240002 30.98032918 -46.98883156 27.54025041 -41.0625 24.0625 C-39.05338542 22.88671875 -37.04427083 21.7109375 -35.03515625 20.53515625 C-34.0488623 19.95693115 -33.06256836 19.37870605 -32.04638672 18.78295898 C-27.90835058 16.36109026 -23.76249303 13.95270968 -19.6159668 11.54541016 C-17.29758447 10.17580118 -15.01668255 8.76556896 -12.75 7.3125 C-8.96691164 4.90940614 -5.02075562 2.97510803 -1 1 C-0.67 0.67 -0.34 0.34 0 0 Z " fill="#003113" transform="translate(761,278)"/>
<path d="M0 0 C1.59980335 0.79338587 3.19886269 1.58827212 4.79760742 2.38378906 C5.6881633 2.82627991 6.57871918 3.26877075 7.4962616 3.72467041 C10.52490278 5.2673698 13.4175213 6.96960649 16.3125 8.75 C23.84497258 13.33717982 31.45014328 17.79731839 39.0625 22.25 C41.60045556 23.73534389 44.13818711 25.22106999 46.67578125 26.70703125 C47.29965225 27.07234451 47.92352325 27.43765778 48.56629944 27.81404114 C55.20011868 31.70023719 61.81938396 35.61093263 68.43554688 39.52709961 C72.51140096 41.93940988 76.58910202 44.34825154 80.67578125 46.7421875 C89.18312311 51.72597655 97.62971362 56.78858691 106 62 C103 63 103 63 100.87792969 62.06298828 C99.66218262 61.32411377 99.66218262 61.32411377 98.421875 60.5703125 C97.0620752 59.75445679 97.0620752 59.75445679 95.67480469 58.92211914 C94.70961914 58.32906982 93.74443359 57.73602051 92.75 57.125 C91.76161133 56.52872803 90.77322266 55.93245605 89.75488281 55.31811523 C87.75981973 54.11358861 85.76727669 52.90487763 83.77734375 51.69189453 C80.72833653 49.83450881 77.66668749 47.99930433 74.6015625 46.16870117 C70.80901932 43.90287665 67.02496279 41.62313079 63.25 39.328125 C59.03231232 36.77115184 54.78649374 34.32788462 50.4375 32 C46.99844952 30.14783256 43.72295334 28.20608571 40.5 26 C37.47237587 23.9320956 34.42441793 22.09665775 31.1875 20.375 C24.55712375 16.84195666 18.1566757 12.93583609 11.72924805 9.05029297 C10.88918213 8.54256348 10.04911621 8.03483398 9.18359375 7.51171875 C8.42618896 7.05240967 7.66878418 6.59310059 6.88842773 6.11987305 C5.00673588 4.97355061 5.00673588 4.97355061 3 4 C1.71244188 9.91193374 1.86698384 15.77174022 1.88647461 21.78857422 C1.88632858 22.96963242 1.88618256 24.15069061 1.8860321 25.36753845 C1.88660783 28.59230442 1.89161004 31.81702654 1.89860606 35.04178381 C1.90487342 38.41702425 1.90544607 41.79226563 1.90663147 45.16751099 C1.90973483 51.55281833 1.91793477 57.93810847 1.92798096 64.32340825 C1.93917304 71.59547435 1.94466034 78.86754129 1.94967639 86.13961387 C1.96011824 101.09308548 1.97769836 116.04654102 2 131 C2.76642822 131.29567871 3.53285645 131.59135742 4.32250977 131.89599609 C7.43413139 133.17900448 10.09366428 134.82474082 12.9375 136.625 C18.80220199 140.30434671 24.77056563 143.75429173 30.80859375 147.140625 C33.96253527 148.97817232 36.96502181 150.97395803 40 153 C41.65340592 153.94037462 43.32020907 154.85761107 45 155.75 C51.73892537 159.3750771 58.36745772 163.18507787 65 167 C65 167.66 65 168.32 65 169 C65.86625 169.2475 66.7325 169.495 67.625 169.75 C71.52075571 171.19287249 73.93003485 172.14746708 77 175 C77.9058885 178.77348079 77.76747478 182.4985699 77.69702148 186.36206055 C77.69950394 187.52171326 77.70198639 188.68136597 77.70454407 189.87615967 C77.70546326 193.71367378 77.66362884 197.54945993 77.62109375 201.38671875 C77.61244204 204.04664428 77.60604711 206.70648183 77.60255432 209.3664093 C77.59060037 214.94087817 77.5567965 220.514852 77.50756836 226.08911133 C77.43810984 233.95947103 77.4088148 241.82960958 77.38716781 249.70022523 C77.36888754 255.80408988 77.33928562 261.90790596 77.30859375 268.01171875 C77.30216795 269.3206629 77.29574215 270.62960705 77.28912163 271.97821617 C77.26824508 275.66092482 77.23995145 279.34348918 77.20874023 283.02612305 C77.20290924 284.12898148 77.19707825 285.2318399 77.19107056 286.36811829 C77.18102493 287.36499664 77.17097931 288.361875 77.16062927 289.38896179 C77.15032259 290.69610657 77.15032259 290.69610657 77.1398077 292.02965832 C77 294 77 294 76 295 C71.68447925 295.49023127 69.71002614 294.46947451 66.3125 291.875 C59.75117505 287.05305427 52.84890086 283.04328149 45.7668457 279.03588867 C45.16316162 278.69404541 44.55947754 278.35220215 43.9375 278 C43.33703857 277.66009033 42.73657715 277.32018066 42.11791992 276.9699707 C37.92627015 274.57810588 33.9075795 272.01153516 29.92578125 269.2890625 C27.71063645 267.80630838 25.41467183 266.49478221 23.0859375 265.19921875 C19.02728595 262.86587413 15.0666765 260.3654851 11.0859375 257.90234375 C9.13066862 256.69700711 7.15819197 255.51880119 5.1640625 254.37890625 C3 253 3 253 2 251 C6.8572746 252.7188765 11.13672727 255.27954992 15.5625 257.875 C16.39168945 258.3582373 17.22087891 258.84147461 18.07519531 259.33935547 C28.14290276 265.22384163 38.12821991 271.24633363 48.11035156 277.27441406 C49.42183755 278.06619398 50.73367783 278.85738738 52.04589844 279.64794922 C53.71639185 280.65443711 55.38560734 281.66304522 57.0546875 282.671875 C60.75640357 284.87998075 64.50280506 287.00984735 68.24658203 289.14550781 C68.89651627 289.51656647 69.5464505 289.88762512 70.21607971 290.26992798 C71.81057535 291.18020507 73.40526801 292.09013704 75 293 C75.1967294 277.8833861 75.31295206 262.76762244 75.33421898 247.64978027 C75.3459572 240.62941723 75.38369894 233.611019 75.48339844 226.59130859 C75.5795686 219.81488812 75.60228721 213.04136661 75.58046341 206.26431274 C75.58409985 203.68064367 75.612246 201.09688788 75.66541672 198.51376343 C76.5778093 185.77197643 76.5778093 185.77197643 72.62716484 174.15483093 C68.88289873 170.90444788 64.7022219 169.4891832 60 168 C58.37406348 167.10145565 56.76726349 166.16457875 55.20703125 165.15625 C54.48845947 164.72280273 53.7698877 164.28935547 53.02954102 163.84277344 C52.29791748 163.3996582 51.56629395 162.95654297 50.8125 162.5 C44.94542767 158.96203201 39.06882636 155.44109361 33.171875 151.953125 C32.28957466 151.43117554 32.28957466 151.43117554 31.38945007 150.89868164 C28.5032219 149.19182895 25.61601469 147.48666552 22.7277832 145.78320312 C20.62063438 144.53784704 18.52965491 143.26453915 16.4594574 141.9586792 C13.10988321 139.90415877 13.10988321 139.90415877 9.56878662 138.91571045 C5.36306548 137.30056892 2.43682289 135.88256628 0 132 C-2.36885989 123.17698021 -1.55320657 113.60110164 -1.31812119 104.5342083 C-1.23653632 100.85632265 -1.2291939 97.17828466 -1.21379089 93.49963379 C-1.17347369 86.54292144 -1.06693008 79.58888285 -0.93624753 72.63334513 C-0.79065148 64.71107767 -0.71939417 56.78867855 -0.65420687 48.86540508 C-0.51852672 32.57537442 -0.29005672 16.28802899 0 0 Z " fill="#000702" transform="translate(370,478)"/>
<path d="M0 0 C0.99 0.33 1.98 0.66 3 1 C3 1.66 3 2.32 3 3 C4.175625 3.309375 4.175625 3.309375 5.375 3.625 C9.35941767 5.13633084 12.67594651 7.12423418 16.2890625 9.359375 C19.00365647 11.00221285 21.76182622 12.50944533 24.5625 14 C28.83922763 16.30145936 32.85843141 18.8154944 36.83203125 21.60546875 C39.45806111 23.29464472 42.20156709 24.61666368 45 26 C46.92648842 27.08693951 48.84309938 28.19155166 50.75 29.3125 C52.30654297 30.22515625 52.30654297 30.22515625 53.89453125 31.15625 C57.53273153 33.31628841 61.14621113 35.51500349 64.74609375 37.73828125 C67.10183841 39.05700833 69.47504461 40.05147178 72 41 C72 41.66 72 42.32 72 43 C74.31 43.66 76.62 44.32 79 45 C79 45.66 79 46.32 79 47 C79.886875 47.268125 80.77375 47.53625 81.6875 47.8125 C84.8265439 48.93781762 87.1794037 50.24687828 90 52 C90.99515625 52.61617188 91.9903125 53.23234375 93.015625 53.8671875 C94.08296875 54.52976562 95.1503125 55.19234375 96.25 55.875 C103.98459782 60.64920044 111.84230224 64.99531201 120 69 C120 69.66 120 70.32 120 71 C120.969375 71.20625 121.93875 71.4125 122.9375 71.625 C126.9710988 72.78204826 129.94490794 74.84382596 133.359375 77.23046875 C136.4274575 79.28644711 139.59834024 81.12355528 142.8125 82.9375 C143.41102783 83.27587891 144.00955566 83.61425781 144.6262207 83.96289062 C145.83276954 84.64446495 147.03955538 85.32561988 148.24658203 86.00634766 C154.61631942 89.61604289 160.9207465 93.33984226 167.1875 97.125 C171.0667024 99.46751353 174.99980585 101.68070757 178.9921875 103.82421875 C181.14433109 105.08452074 183.09831724 106.38399604 185 108 C185 108.66 185 109.32 185 110 C181.25145849 108.59791275 177.88143494 106.88324944 174.421875 104.875 C173.35243652 104.25616943 172.28299805 103.63733887 171.18115234 102.99975586 C170.04887207 102.33983643 168.9165918 101.67991699 167.75 101 C166.56605417 100.31299765 165.38197099 99.62623194 164.19775391 98.93969727 C156.57135756 94.51434688 148.96422851 90.05637275 141.37109375 85.57421875 C132.96890919 80.61848037 124.53191557 75.72185444 116.10400391 70.81005859 C113.08268252 69.04821521 110.06260251 67.28426522 107.04296875 65.51953125 C92.39258186 56.95965948 77.70331173 48.468584 63 40 C16.86655179 13.42877657 16.86655179 13.42877657 -2 2 C-1.34 1.34 -0.68 0.68 0 0 Z " fill="#000C04" transform="translate(262,279)"/>
<path d="M0 0 C6.12622284 1.6159319 11.1885342 4.88297248 16.5625 8.125 C17.53525879 8.70596436 18.50801758 9.28692871 19.51025391 9.88549805 C26.71122894 14.19543534 33.88184855 18.55451296 41 23 C40.01 23.33 39.02 23.66 38 24 C35.6791623 22.8152154 33.56292114 21.58536205 31.375 20.1875 C30.03059295 19.35312644 28.68551364 18.51983533 27.33984375 17.6875 C26.63456543 17.24792969 25.92928711 16.80835938 25.20263672 16.35546875 C20.78806624 13.63881 16.29307076 11.05684799 11.81201172 8.4519043 C7.78055074 6.09368828 3.81577915 3.69664267 0 1 C0 0.67 0 0.34 0 0 Z " fill="#000802" transform="translate(358,380)"/>
<path d="M0 0 C5.37076229 1.51265141 9.76245616 4.01915195 14.5 6.875 C15.60021484 7.52662109 15.60021484 7.52662109 16.72265625 8.19140625 C20.89920234 10.6794024 24.98076654 13.26539496 29 16 C28.34 16.33 27.68 16.66 27 17 C23.16895818 15.34060336 19.60556237 13.09732597 16 11 C15.35047363 10.62391602 14.70094727 10.24783203 14.03173828 9.86035156 C11.97452502 8.66514822 9.92364858 7.45981832 7.875 6.25 C7.21153564 5.86150879 6.54807129 5.47301758 5.86450195 5.07275391 C1.11684745 2.23369489 1.11684745 2.23369489 0 0 Z " fill="#000B04" transform="translate(399,404)"/>
<path d="M0 0 C1.64936913 0.78427352 3.29441127 1.57765259 4.9375 2.375 C5.85402344 2.81585938 6.77054687 3.25671875 7.71484375 3.7109375 C10 5 10 5 11 7 C8.75 7.25 8.75 7.25 6 7 C3.8125 5.0625 3.8125 5.0625 2 3 C1.34 2.67 0.68 2.34 0 2 C0 1.34 0 0.68 0 0 Z " fill="#00D458" transform="translate(260,281)"/>
</svg>
