<?xml version="1.0" standalone="no"?>
<!DOCTYPE svg PUBLIC "-//W3C//DTD SVG 20010904//EN"
 "http://www.w3.org/TR/2001/REC-SVG-20010904/DTD/svg10.dtd">
<svg version="1.0" xmlns="http://www.w3.org/2000/svg"
 width="1080.000000pt" height="1080.000000pt" viewBox="0 0 1080.000000 1080.000000"
 preserveAspectRatio="xMidYMid meet">

<g transform="translate(0.000000,1080.000000) scale(0.100000,-0.100000)"
fill="#000000" stroke="none">
<path d="M3985 8354 c-71 -37 -237 -152 -345 -239 -447 -357 -789 -824 -991
-1351 -202 -529 -257 -1072 -168 -1659 105 -701 510 -1418 1064 -1889 778
-663 1735 -910 2740 -710 587 117 1165 430 1598 867 224 226 471 558 497 668
29 120 -48 247 -172 284 -76 22 -121 12 -245 -57 -355 -198 -666 -301 -1048
-349 -147 -18 -504 -16 -650 5 -400 56 -762 185 -1084 387 -336 212 -655 529
-867 866 -199 314 -343 728 -390 1118 -20 173 -15 543 11 700 54 338 161 647
326 942 32 58 64 124 70 146 29 108 -37 237 -143 281 -59 25 -146 21 -203 -10z"/>
</g>
</svg>
