<?xml version="1.0" standalone="no"?>
<!DOCTYPE svg PUBLIC "-//W3C//DTD SVG 20010904//EN"
 "http://www.w3.org/TR/2001/REC-SVG-20010904/DTD/svg10.dtd">
<svg version="1.0" xmlns="http://www.w3.org/2000/svg"
 width="1080.000000pt" height="1080.000000pt" viewBox="0 0 1080.000000 1080.000000"
 preserveAspectRatio="xMidYMid meet">

<g transform="translate(0.000000,1080.000000) scale(0.100000,-0.100000)"
fill="#000000" stroke="none">
<path d="M4620 7974 c-148 -18 -301 -48 -392 -78 -114 -37 -365 -134 -448
-172 -145 -67 -357 -200 -487 -306 -115 -94 -354 -335 -441 -444 -240 -306
-405 -683 -488 -1119 -28 -144 -29 -161 -29 -450 0 -270 2 -313 23 -428 77
-428 240 -809 484 -1136 104 -138 275 -320 387 -410 367 -296 673 -452 1078
-550 232 -56 313 -65 618 -65 246 -1 297 2 425 22 211 34 360 69 463 108 154
59 405 188 536 276 126 84 367 288 475 401 126 133 272 333 282 387 12 57 -5
82 -159 238 -117 118 -160 155 -189 163 -52 13 -99 -8 -135 -61 -277 -410
-589 -667 -1005 -826 -419 -160 -945 -163 -1363 -7 -131 49 -334 153 -452 232
-96 64 -147 109 -278 243 -132 134 -177 189 -256 308 -119 178 -175 290 -234
462 -219 638 -106 1322 306 1858 67 88 266 285 359 357 220 169 461 292 700
357 212 58 303 69 530 62 331 -9 579 -68 849 -202 341 -168 611 -413 818 -742
50 -80 130 -237 136 -265 1 -9 -110 -13 -451 -17 l-454 -5 -34 -37 c-39 -43
-46 -96 -16 -139 25 -38 1196 -1240 1233 -1266 21 -16 46 -23 76 -23 l43 0
628 631 c345 347 632 641 639 652 20 35 16 91 -9 122 -43 55 -50 56 -535 55
-245 -1 -449 2 -453 7 -4 4 -20 46 -35 93 -73 224 -213 482 -389 715 -77 103
-273 304 -401 412 -222 189 -575 389 -835 476 -335 111 -758 153 -1120 111z"/>
</g>
</svg>
